<svg width="1437" height="142" viewBox="0 0 1437 142" fill="none" xmlns="http://www.w3.org/2000/svg">
<path d="M1116.62 139.33L815.125 1.32959M1116.62 139.33L1441 139.33M1116.62 139.33L705.875 139.33L311.625 139.33M815.125 1.32959L1034.62 1.32959M815.125 1.32959H705.875L566.625 1.32959M311.625 139.33L566.625 1.32959M311.625 139.33L1.125 141.33M566.625 1.32959L358.125 1.32959M1441 139.33L1336.12 104.83M1441 139.33V104.83M1034.62 1.32959L1135.12 35.8296M1034.62 1.32959L1275.12 1.32959M358.125 1.32959L269.875 35.8296M358.125 1.32959L139.625 1.32959M1.125 141.33L93.375 104.83M1.125 141.33V104.83M1235.62 70.3296L181.625 70.3296M1235.62 70.3296L1336.12 104.83M1235.62 70.3296L1135.12 35.8296M1235.62 70.3296L1441 70.3296M181.625 70.3296L93.375 104.83M181.625 70.3296L269.875 35.8296M181.625 70.3296L1.125 70.3296M1336.12 104.83L93.375 104.83M1336.12 104.83L1441 104.83M93.375 104.83H1.125M1135.12 35.8296L269.875 35.8296M1135.12 35.8296L1441 35.8296M269.875 35.8296L1.125 35.8296M1.125 35.8296V1.32959H139.625M1.125 35.8296V70.3296M1.125 70.3296V104.83M1441 104.83V70.3296M1441 70.3296V53.0796M1441 35.8296V1.32959L1275.12 1.32959M1441 35.8296V53.0796M1275.12 1.32959L1441 53.0796M139.625 1.32959L1.125 46.8296" stroke="url(#paint0_linear_56_1970)"/>
<defs>
<linearGradient id="paint0_linear_56_1970" x1="720.875" y1="139.33" x2="721.125" y2="-32.6704" gradientUnits="userSpaceOnUse">
<stop stop-color="#ABBABA"/>
<stop offset="1" stop-color="#E3E8E8" stop-opacity="0"/>
</linearGradient>
</defs>
</svg>
