<svg width="1440" height="140" viewBox="0 0 1440 140" fill="none" xmlns="http://www.w3.org/2000/svg">
<path d="M324.5 1.32959L626 139.33M324.5 1.32959H0.125M324.5 1.32959H735.25H1129.5M626 139.33H406.5M626 139.33H735.25H874.5M1129.5 1.32959L874.5 139.33M1129.5 1.32959L1440 -0.67041M874.5 139.33H1083M0.125 1.32959L105 35.8296M0.125 1.32959V35.8296M406.5 139.33L306 104.83M406.5 139.33H166M1083 139.33L1171.25 104.83M1083 139.33H1301.5M1440 -0.67041L1347.75 35.8296M1440 -0.67041V35.8296M205.5 70.3296H1259.5M205.5 70.3296L105 35.8296M205.5 70.3296L306 104.83M205.5 70.3296H0.125M1259.5 70.3296L1347.75 35.8296M1259.5 70.3296L1171.25 104.83M1259.5 70.3296H1440M105 35.8296H1347.75M105 35.8296H0.125M1347.75 35.8296H1440M306 104.83H1171.25M306 104.83H0.125M1171.25 104.83H1440M1440 104.83V139.33H1301.5M1440 104.83V70.3296M1440 70.3296V35.8296M0.125 35.8296V70.3296M0.125 70.3296V87.5796M0.125 104.83V139.33H166M0.125 104.83V87.5796M166 139.33L0.125 87.5796M1301.5 139.33L1440 93.8296" stroke="url(#paint0_linear_56_1969)"/>
<defs>
<linearGradient id="paint0_linear_56_1969" x1="720.25" y1="1.32959" x2="720" y2="173.33" gradientUnits="userSpaceOnUse">
<stop stop-color="#ABBABA"/>
<stop offset="1" stop-color="#E3E8E8" stop-opacity="0"/>
</linearGradient>
</defs>
</svg>
