<svg width="533" height="474" viewBox="0 0 533 474" fill="none" xmlns="http://www.w3.org/2000/svg">
<rect width="739" height="473.177" rx="20.0593" fill="white"/>
<circle cx="23.4337" cy="31.0236" r="7.43367" fill="#EE6A5F"/>
<circle cx="47" cy="31.0236" r="7.43367" fill="#F4BE50"/>
<circle cx="70.5664" cy="31.0236" r="7.43367" fill="#5FC454"/>
<rect x="290.628" y="16" width="231.685" height="30.0474" rx="15.0237" fill="#F5F5F5"/>
<path d="M356.973 35.0237V34.2233C356.858 34.3948 356.71 34.5434 356.538 34.6806C356.23 34.9093 355.795 35.138 355.2 35.138C354.103 35.138 353.371 34.3948 353.371 33.5372C353.371 32.6224 354 31.9935 354.972 31.822L356.973 31.479C356.973 30.8958 356.515 30.4498 355.829 30.4498C355.383 30.4498 355.052 30.6442 354.789 30.8272C354.64 30.9301 354.514 31.0559 354.4 31.1931L353.657 30.4498C353.805 30.2555 353.988 30.0839 354.206 29.9353C354.571 29.6723 355.097 29.4207 355.829 29.4207C357.201 29.4207 358.116 30.3355 358.116 31.5361V35.0237H356.973ZM356.973 32.5652V32.3937L355.372 32.6796C354.789 32.7825 354.514 33.0684 354.514 33.4228C354.514 33.823 354.846 34.1661 355.429 34.1661C356.287 34.1661 356.973 33.48 356.973 32.5652ZM359.712 37.4249V29.5351H360.855V30.3355C360.97 30.164 361.118 30.0153 361.301 29.8781C361.61 29.6494 362.067 29.4207 362.742 29.4207C364.114 29.4207 365.315 30.6214 365.315 32.2794C365.315 33.9374 364.114 35.138 362.742 35.138C362.067 35.138 361.61 34.9093 361.301 34.6806C361.118 34.5434 360.97 34.3948 360.855 34.2233V37.4249H359.712ZM362.513 34.0517C363.428 34.0517 364.171 33.3199 364.171 32.2794C364.171 31.2388 363.428 30.507 362.513 30.507C361.598 30.507 360.855 31.2388 360.855 32.2794C360.855 33.3199 361.598 34.0517 362.513 34.0517ZM366.568 37.4249V29.5351H367.711V30.3355C367.826 30.164 367.974 30.0153 368.157 29.8781C368.466 29.6494 368.924 29.4207 369.598 29.4207C370.97 29.4207 372.171 30.6214 372.171 32.2794C372.171 33.9374 370.97 35.138 369.598 35.138C368.924 35.138 368.466 34.9093 368.157 34.6806C367.974 34.5434 367.826 34.3948 367.711 34.2233V37.4249H366.568ZM369.369 34.0517C370.284 34.0517 371.027 33.3199 371.027 32.2794C371.027 31.2388 370.284 30.507 369.369 30.507C368.455 30.507 367.711 31.2388 367.711 32.2794C367.711 33.3199 368.455 34.0517 369.369 34.0517ZM373.882 35.138C373.481 35.138 373.138 34.795 373.138 34.3948C373.138 33.9946 373.481 33.6515 373.882 33.6515C374.282 33.6515 374.625 33.9946 374.625 34.3948C374.625 34.795 374.282 35.138 373.882 35.138ZM375.994 35.0237V29.5351H377.137V35.0237H375.994ZM375.88 27.8199C375.88 27.4197 376.211 27.1338 376.566 27.1338C376.92 27.1338 377.252 27.4197 377.252 27.8199C377.252 28.2201 376.92 28.506 376.566 28.506C376.211 28.506 375.88 28.2201 375.88 27.8199ZM378.795 35.0237V29.5351H379.939V30.3355C380.053 30.164 380.19 30.0153 380.362 29.8781C380.648 29.6494 381.071 29.4207 381.654 29.4207C382.912 29.4207 383.827 30.3241 383.827 31.822V35.0237H382.683V31.822C382.683 31.0101 382.169 30.507 381.425 30.507C380.568 30.507 379.939 31.1359 379.939 32.0507V35.0237H378.795ZM386.803 35.0237L384.631 29.5351H385.888L387.432 33.5944L388.976 29.5351H390.234L388.061 35.0237H386.803ZM390.803 32.2794C390.803 30.6785 392.06 29.4207 393.661 29.4207C395.262 29.4207 396.52 30.6785 396.52 32.2794C396.52 33.8802 395.262 35.138 393.661 35.138C392.06 35.138 390.803 33.8802 390.803 32.2794ZM393.661 34.0517C394.633 34.0517 395.376 33.3199 395.376 32.2794C395.376 31.2388 394.633 30.507 393.661 30.507C392.689 30.507 391.946 31.2388 391.946 32.2794C391.946 33.3199 392.689 34.0517 393.661 34.0517ZM397.836 35.0237V29.5351H398.979V35.0237H397.836ZM397.721 27.8199C397.721 27.4197 398.053 27.1338 398.408 27.1338C398.762 27.1338 399.094 27.4197 399.094 27.8199C399.094 28.2201 398.762 28.506 398.408 28.506C398.053 28.506 397.721 28.2201 397.721 27.8199ZM404.697 33.2513L405.497 33.9946C405.325 34.2118 405.131 34.3948 404.902 34.5663C404.502 34.8522 403.93 35.138 403.153 35.138C401.552 35.138 400.294 33.8802 400.294 32.2794C400.294 30.6785 401.552 29.4207 403.153 29.4207C403.93 29.4207 404.502 29.6952 404.88 29.9696C405.097 30.1297 405.291 30.3126 405.44 30.507L404.639 31.2503C404.536 31.113 404.411 30.9873 404.262 30.8844C403.999 30.7014 403.645 30.507 403.153 30.507C402.181 30.507 401.438 31.2388 401.438 32.2794C401.438 33.3199 402.181 34.0517 403.153 34.0517C403.645 34.0517 404.022 33.8688 404.285 33.6515C404.434 33.5372 404.571 33.4 404.697 33.2513ZM410.64 33.3085L411.326 34.1089C411.177 34.3033 410.983 34.4748 410.754 34.6235C410.354 34.8865 409.794 35.138 408.982 35.138C407.381 35.138 406.123 33.8802 406.123 32.2794C406.123 30.6785 407.381 29.4207 408.925 29.4207C410.48 29.4207 411.612 30.5528 411.612 32.1079C411.612 32.2794 411.589 32.4166 411.578 32.5195L411.555 32.6796H407.324C407.45 33.4228 408.113 34.0517 409.039 34.0517C409.531 34.0517 409.931 33.8688 410.205 33.6858C410.365 33.5829 410.514 33.4571 410.64 33.3085ZM407.324 31.7076H410.411C410.24 30.9644 409.737 30.4498 408.925 30.4498C408.056 30.4498 407.553 30.9644 407.324 31.7076ZM414.123 35.0237L412.179 29.5351H413.436L414.694 33.2513L415.895 29.5351H416.924L418.125 33.2513L419.382 29.5351H420.64L418.696 35.0237H417.61L416.409 31.3646L415.209 35.0237H414.123ZM421.61 35.0237V29.5351H422.753V35.0237H421.61ZM421.495 27.8199C421.495 27.4197 421.827 27.1338 422.181 27.1338C422.536 27.1338 422.867 27.4197 422.867 27.8199C422.867 28.2201 422.536 28.506 422.181 28.506C421.827 28.506 421.495 28.2201 421.495 27.8199ZM423.896 34.1089L424.64 33.3657C424.754 33.5143 424.88 33.6401 425.028 33.743C425.291 33.926 425.623 34.1089 426.069 34.1089C426.709 34.1089 427.041 33.7773 427.041 33.4228C427.041 32.5081 424.125 32.9769 424.125 31.0216C424.125 30.164 424.88 29.4207 426.126 29.4207C426.778 29.4207 427.27 29.6151 427.59 29.7981C427.784 29.901 427.944 30.0268 428.07 30.164L427.327 30.9072C427.235 30.8272 427.132 30.7471 427.007 30.6785C426.789 30.5528 426.492 30.4498 426.126 30.4498C425.543 30.4498 425.269 30.7357 425.269 31.0216C425.269 31.9363 428.184 31.479 428.184 33.4228C428.184 34.3376 427.395 35.138 426.069 35.138C425.337 35.138 424.811 34.8865 424.445 34.6235C424.228 34.4748 424.045 34.3033 423.896 34.1089ZM433.554 33.3085L434.24 34.1089C434.091 34.3033 433.897 34.4748 433.668 34.6235C433.268 34.8865 432.708 35.138 431.896 35.138C430.295 35.138 429.037 33.8802 429.037 32.2794C429.037 30.6785 430.295 29.4207 431.839 29.4207C433.394 29.4207 434.526 30.5528 434.526 32.1079C434.526 32.2794 434.503 32.4166 434.491 32.5195L434.469 32.6796H430.238C430.364 33.4228 431.027 34.0517 431.953 34.0517C432.445 34.0517 432.845 33.8688 433.119 33.6858C433.279 33.5829 433.428 33.4571 433.554 33.3085ZM430.238 31.7076H433.325C433.154 30.9644 432.65 30.4498 431.839 30.4498C430.97 30.4498 430.466 30.9644 430.238 31.7076ZM436.236 35.138C435.836 35.138 435.493 34.795 435.493 34.3948C435.493 33.9946 435.836 33.6515 436.236 33.6515C436.636 33.6515 436.979 33.9946 436.979 34.3948C436.979 34.795 436.636 35.138 436.236 35.138ZM442.35 33.2513L443.151 33.9946C442.979 34.2118 442.785 34.3948 442.556 34.5663C442.156 34.8522 441.584 35.138 440.807 35.138C439.206 35.138 437.948 33.8802 437.948 32.2794C437.948 30.6785 439.206 29.4207 440.807 29.4207C441.584 29.4207 442.156 29.6952 442.533 29.9696C442.751 30.1297 442.945 30.3126 443.094 30.507L442.293 31.2503C442.19 31.113 442.064 30.9873 441.916 30.8844C441.653 30.7014 441.298 30.507 440.807 30.507C439.835 30.507 439.091 31.2388 439.091 32.2794C439.091 33.3199 439.835 34.0517 440.807 34.0517C441.298 34.0517 441.676 33.8688 441.939 33.6515C442.087 33.5372 442.225 33.4 442.35 33.2513ZM443.777 32.2794C443.777 30.6785 445.035 29.4207 446.636 29.4207C448.236 29.4207 449.494 30.6785 449.494 32.2794C449.494 33.8802 448.236 35.138 446.636 35.138C445.035 35.138 443.777 33.8802 443.777 32.2794ZM446.636 34.0517C447.608 34.0517 448.351 33.3199 448.351 32.2794C448.351 31.2388 447.608 30.507 446.636 30.507C445.664 30.507 444.92 31.2388 444.92 32.2794C444.92 33.3199 445.664 34.0517 446.636 34.0517ZM450.753 35.0237V29.5351H451.896V30.3355C451.988 30.164 452.114 30.0153 452.262 29.8781C452.525 29.6494 452.914 29.4207 453.497 29.4207C454.092 29.4207 454.526 29.6494 454.801 29.8781C454.961 30.0153 455.098 30.164 455.212 30.3355C455.315 30.164 455.464 30.0153 455.636 29.8781C455.944 29.6494 456.413 29.4207 457.099 29.4207C458.185 29.4207 459.1 30.3355 459.1 31.7648V35.0237H457.957V31.7648C457.957 30.953 457.454 30.507 456.813 30.507C456.07 30.507 455.498 31.0787 455.498 31.9935V35.0237H454.355V31.7648C454.355 30.953 453.852 30.507 453.211 30.507C452.468 30.507 451.896 31.0787 451.896 31.9935V35.0237H450.753Z" fill="#636D7E"/>
<rect x="16" y="75.0474" width="183.87" height="382.129" rx="9.02668" fill="#FAFAFA"/>
<path d="M37.8743 114.118V102.885H40.2814V114.118H37.8743ZM42.77 114.118V106.255H44.9364V107.378H45.0166C45.1931 107.138 45.3857 106.929 45.6104 106.737C45.9955 106.416 46.5732 106.095 47.3435 106.095C48.9482 106.095 50.232 107.378 50.232 109.384V114.118H48.0656V109.705C48.0656 108.743 47.52 108.181 46.6214 108.181C45.6585 108.181 44.9364 108.903 44.9364 109.946V114.118H42.77ZM54.0025 114.118L51.0338 106.255H53.3606L55.174 111.551H55.2382L57.0516 106.255H59.3784L56.4097 114.118H54.0025ZM64.0284 112.273C65.1517 112.273 66.0344 111.39 66.0344 110.187C66.0344 108.983 65.1517 108.101 64.0284 108.101C62.9051 108.101 62.0225 108.983 62.0225 110.187C62.0225 111.39 62.9051 112.273 64.0284 112.273ZM59.8561 110.187C59.8561 107.94 61.7015 106.095 64.0284 106.095C66.3553 106.095 68.2008 107.94 68.2008 110.187C68.2008 112.433 66.3553 114.279 64.0284 114.279C61.7015 114.279 59.8561 112.433 59.8561 110.187ZM69.803 114.118V106.255H71.9694V114.118H69.803ZM69.6425 104.009C69.6425 103.367 70.2042 102.805 70.8942 102.805C71.5842 102.805 72.1299 103.367 72.1299 104.009C72.1299 104.65 71.5682 105.212 70.8782 105.212C70.1881 105.212 69.6425 104.65 69.6425 104.009ZM79.6665 111.31L81.0305 112.674C80.8219 112.979 80.5491 113.236 80.2282 113.477C79.6665 113.878 78.8802 114.279 77.7408 114.279C75.4139 114.279 73.5685 112.433 73.5685 110.187C73.5685 107.94 75.4139 106.095 77.7408 106.095C78.8802 106.095 79.6665 106.496 80.2282 106.897C80.5491 107.138 80.8219 107.395 81.0305 107.699L79.6665 109.063C79.5221 108.887 79.3456 108.726 79.153 108.582C78.816 108.341 78.3346 108.101 77.7408 108.101C76.6175 108.101 75.7349 108.983 75.7349 110.187C75.7349 111.39 76.6175 112.273 77.7408 112.273C78.3346 112.273 78.816 112.032 79.153 111.792C79.3456 111.647 79.5221 111.487 79.6665 111.31ZM88.1679 111.471L89.2912 112.995C89.0505 113.236 88.7616 113.444 88.4246 113.637C87.8469 113.958 87.0125 114.279 85.9212 114.279C83.5944 114.279 81.7489 112.433 81.7489 110.187C81.7489 107.94 83.5944 106.095 85.841 106.095C88.0074 106.095 89.7726 107.86 89.7726 110.026C89.7726 110.331 89.7405 110.54 89.7245 110.716L89.6924 110.989H83.9956C84.2363 111.711 84.8782 112.353 86.0817 112.353C86.7718 112.353 87.2692 112.161 87.6383 111.92C87.8469 111.792 88.0235 111.647 88.1679 111.471ZM83.9956 109.384H87.526C87.2853 108.662 86.6594 108.02 85.7608 108.02C84.8621 108.02 84.2363 108.662 83.9956 109.384Z" fill="#0F0F0F"/>
<path d="M94.2709 114.118L90.58 102.885H93.0674L95.3942 110.428H95.4745L97.8013 102.885H100.048L102.375 110.428H102.455L104.782 102.885H107.269L103.578 114.118H101.252L98.9728 106.817H98.8765L96.5978 114.118H94.2709ZM108.245 114.118V106.255H110.411V114.118H108.245ZM108.084 104.009C108.084 103.367 108.646 102.805 109.336 102.805C110.026 102.805 110.572 103.367 110.572 104.009C110.572 104.65 110.01 105.212 109.32 105.212C108.63 105.212 108.084 104.65 108.084 104.009ZM111.689 112.835L112.973 111.471C113.134 111.647 113.326 111.792 113.535 111.92C113.904 112.161 114.417 112.353 115.059 112.353C115.781 112.353 116.022 112.112 116.022 111.792C116.022 110.909 112.01 111.069 112.01 108.502C112.01 107.218 113.134 106.095 115.139 106.095C116.15 106.095 116.905 106.4 117.418 106.704C117.723 106.881 117.98 107.09 118.188 107.298L116.905 108.662C116.776 108.55 116.616 108.438 116.439 108.341C116.134 108.165 115.701 108.02 115.139 108.02C114.578 108.02 114.337 108.261 114.337 108.502C114.337 109.384 118.349 109.224 118.349 111.792C118.349 113.14 117.226 114.279 115.059 114.279C113.968 114.279 113.134 113.926 112.556 113.557C112.219 113.348 111.93 113.107 111.689 112.835ZM125.732 111.471L126.855 112.995C126.615 113.236 126.326 113.444 125.989 113.637C125.411 113.958 124.577 114.279 123.485 114.279C121.158 114.279 119.313 112.433 119.313 110.187C119.313 107.94 121.158 106.095 123.405 106.095C125.572 106.095 127.337 107.86 127.337 110.026C127.337 110.331 127.305 110.54 127.289 110.716L127.257 110.989H121.56C121.8 111.711 122.442 112.353 123.646 112.353C124.336 112.353 124.833 112.161 125.202 111.92C125.411 111.792 125.588 111.647 125.732 111.471ZM121.56 109.384H125.09C124.849 108.662 124.224 108.02 123.325 108.02C122.426 108.02 121.8 108.662 121.56 109.384Z" fill="#039635"/>
<path d="M45.4156 151.391L46.3289 152.304C46.0549 152.643 45.7418 152.943 45.3634 153.217C44.7241 153.674 43.7977 154.13 42.5452 154.13C39.8052 154.13 37.7176 152.043 37.7176 149.433C37.7176 146.824 39.8052 144.736 42.5452 144.736C43.7977 144.736 44.711 145.167 45.3373 145.624C45.6896 145.885 46.0027 146.172 46.2637 146.498L45.3503 147.411C45.1677 147.163 44.9328 146.928 44.6588 146.733C44.1891 146.38 43.4846 146.041 42.5452 146.041C40.6533 146.041 39.1528 147.542 39.1528 149.433C39.1528 151.325 40.6533 152.826 42.5452 152.826C43.4846 152.826 44.2022 152.473 44.6849 152.108C44.972 151.899 45.2199 151.665 45.4156 151.391ZM47.7004 154V144.867H49.0052V154H47.7004ZM50.9623 154V147.737H52.267V154H50.9623ZM50.8318 145.78C50.8318 145.323 51.2102 144.997 51.6146 144.997C52.0191 144.997 52.3975 145.323 52.3975 145.78C52.3975 146.237 52.0191 146.563 51.6146 146.563C51.2102 146.563 50.8318 146.237 50.8318 145.78ZM58.9212 152.043L59.704 152.956C59.5344 153.178 59.3126 153.374 59.0517 153.543C58.595 153.843 57.9557 154.13 57.0293 154.13C55.2027 154.13 53.7675 152.695 53.7675 150.869C53.7675 149.042 55.2027 147.607 56.9641 147.607C58.7385 147.607 60.0302 148.898 60.0302 150.673C60.0302 150.869 60.0041 151.025 59.9911 151.143L59.965 151.325H55.1374C55.281 152.173 56.0377 152.891 57.0946 152.891C57.6556 152.891 58.1123 152.682 58.4254 152.473C58.6081 152.356 58.7777 152.213 58.9212 152.043ZM55.1374 150.216H58.6602C58.4645 149.368 57.8904 148.781 56.9641 148.781C55.9725 148.781 55.3984 149.368 55.1374 150.216ZM61.4598 154V147.737H62.7646V148.651C62.8951 148.455 63.0516 148.285 63.2473 148.129C63.5735 147.868 64.0563 147.607 64.7217 147.607C66.1569 147.607 67.2007 148.638 67.2007 150.347V154H65.896V150.347C65.896 149.42 65.3088 148.846 64.4607 148.846C63.4822 148.846 62.7646 149.564 62.7646 150.608V154H61.4598ZM69.5533 152.043V148.977H68.379V147.737H69.0967C69.5011 147.737 69.6838 147.542 69.6838 147.02V145.65H70.8581V147.737H72.2933V148.977H70.8581V151.912C70.8581 152.565 71.1581 152.891 71.7714 152.891C71.9671 152.891 72.1367 152.852 72.2802 152.8L72.489 152.695V153.935L72.215 154.039C72.0454 154.091 71.8105 154.13 71.5104 154.13C70.2579 154.13 69.5533 153.413 69.5533 152.043ZM73.4614 152.956L74.3095 152.108C74.44 152.278 74.5835 152.421 74.7531 152.539C75.0532 152.747 75.4316 152.956 75.9404 152.956C76.6711 152.956 77.0495 152.578 77.0495 152.173C77.0495 151.13 73.7224 151.665 73.7224 149.433C73.7224 148.455 74.5835 147.607 76.0057 147.607C76.7494 147.607 77.3104 147.829 77.6757 148.037C77.8975 148.155 78.0802 148.298 78.2237 148.455L77.3757 149.303C77.2713 149.212 77.1538 149.12 77.0103 149.042C76.7624 148.898 76.4232 148.781 76.0057 148.781C75.3403 148.781 75.0271 149.107 75.0271 149.433C75.0271 150.477 78.3542 149.955 78.3542 152.173C78.3542 153.217 77.4539 154.13 75.9404 154.13C75.1054 154.13 74.5052 153.843 74.0877 153.543C73.8398 153.374 73.631 153.178 73.4614 152.956Z" fill="#636D7E"/>
<rect x="28" y="178" width="154" height="39" rx="5.01482" fill="#F5F5F5"/>
<path d="M39.3047 202.5V193.367H40.74V202.5H39.3047ZM42.9524 202.5V196.237H44.2572V197.151C44.3876 196.955 44.5442 196.785 44.7399 196.629C45.0661 196.368 45.5489 196.107 46.2143 196.107C47.6495 196.107 48.6933 197.138 48.6933 198.847V202.5H47.3885V198.847C47.3885 197.92 46.8014 197.346 45.9533 197.346C44.9748 197.346 44.2572 198.064 44.2572 199.108V202.5H42.9524ZM52.0897 202.5L49.6107 196.237H51.0459L52.8073 200.869L54.5687 196.237H56.0039L53.5249 202.5H52.0897ZM56.6532 199.369C56.6532 197.542 58.0884 196.107 59.9151 196.107C61.7417 196.107 63.1769 197.542 63.1769 199.369C63.1769 201.195 61.7417 202.63 59.9151 202.63C58.0884 202.63 56.6532 201.195 56.6532 199.369ZM59.9151 201.391C61.0241 201.391 61.8722 200.556 61.8722 199.369C61.8722 198.181 61.0241 197.346 59.9151 197.346C58.806 197.346 57.958 198.181 57.958 199.369C57.958 200.556 58.806 201.391 59.9151 201.391ZM64.6784 202.5V196.237H65.9831V202.5H64.6784ZM64.5479 194.28C64.5479 193.823 64.9263 193.497 65.3308 193.497C65.7352 193.497 66.1136 193.823 66.1136 194.28C66.1136 194.737 65.7352 195.063 65.3308 195.063C64.9263 195.063 64.5479 194.737 64.5479 194.28ZM72.5069 200.478L73.4202 201.326C73.2245 201.574 73.0027 201.782 72.7417 201.978C72.2851 202.304 71.6327 202.63 70.7455 202.63C68.9188 202.63 67.4836 201.195 67.4836 199.369C67.4836 197.542 68.9188 196.107 70.7455 196.107C71.6327 196.107 72.2851 196.42 72.7156 196.733C72.9635 196.916 73.1853 197.124 73.3549 197.346L72.4416 198.194C72.3242 198.038 72.1807 197.894 72.0111 197.777C71.711 197.568 71.3065 197.346 70.7455 197.346C69.6364 197.346 68.7883 198.181 68.7883 199.369C68.7883 200.556 69.6364 201.391 70.7455 201.391C71.3065 201.391 71.7371 201.182 72.0372 200.934C72.2068 200.804 72.3633 200.647 72.5069 200.478ZM79.2885 200.543L80.0713 201.456C79.9017 201.678 79.6799 201.874 79.4189 202.043C78.9623 202.343 78.323 202.63 77.3966 202.63C75.5699 202.63 74.1347 201.195 74.1347 199.369C74.1347 197.542 75.5699 196.107 77.3313 196.107C79.1058 196.107 80.3975 197.398 80.3975 199.173C80.3975 199.369 80.3714 199.525 80.3583 199.643L80.3323 199.825H75.5047C75.6482 200.673 76.405 201.391 77.4618 201.391C78.0229 201.391 78.4795 201.182 78.7927 200.973C78.9753 200.856 79.1449 200.713 79.2885 200.543ZM75.5047 198.716H79.0275C78.8318 197.868 78.2577 197.281 77.3313 197.281C76.3397 197.281 75.7657 197.868 75.5047 198.716Z" fill="#0F0F0F"/>
<path d="M37.7347 258.551V249.418H41.388C43.1625 249.418 44.4542 250.723 44.4542 252.354C44.4542 253.985 43.1625 255.289 41.388 255.289H39.17V258.551H37.7347ZM39.17 253.985H41.388C42.3013 253.985 43.0189 253.267 43.0189 252.354C43.0189 251.44 42.3013 250.723 41.388 250.723H39.17V253.985ZM49.2149 258.551V257.638C49.0845 257.834 48.9148 258.003 48.7191 258.16C48.3669 258.421 47.8711 258.682 47.1926 258.682C45.94 258.682 45.105 257.834 45.105 256.855C45.105 255.811 45.8226 255.094 46.9316 254.898L49.2149 254.506C49.2149 253.841 48.693 253.332 47.9102 253.332C47.4013 253.332 47.023 253.554 46.7229 253.763C46.5533 253.88 46.4097 254.024 46.2793 254.18L45.4312 253.332C45.6008 253.11 45.8096 252.915 46.0575 252.745C46.475 252.445 47.0752 252.158 47.9102 252.158C49.4759 252.158 50.5197 253.202 50.5197 254.572V258.551H49.2149ZM49.2149 255.746V255.55L47.3883 255.876C46.7229 255.994 46.4097 256.32 46.4097 256.725C46.4097 257.181 46.7881 257.573 47.4535 257.573C48.4321 257.573 49.2149 256.79 49.2149 255.746ZM51.8214 261.095V259.856C51.8866 259.895 51.9518 259.921 52.0432 259.96C52.1867 260.012 52.3563 260.052 52.6042 260.052C53.1261 260.052 53.5045 259.725 53.7132 259.204L53.9742 258.551L51.4299 252.288H52.8652L54.6266 256.92L56.388 252.288H57.8232L55.0832 259.269C54.5613 260.587 53.8437 261.291 52.7999 261.291C52.4998 261.291 52.265 261.252 52.0954 261.2L51.8214 261.095ZM58.8639 258.551V252.288H60.1687V253.202C60.273 253.006 60.4166 252.836 60.5862 252.68C60.8863 252.419 61.3299 252.158 61.9953 252.158C62.6738 252.158 63.1696 252.419 63.4827 252.68C63.6654 252.836 63.8219 253.006 63.9524 253.202C64.0698 253.006 64.2394 252.836 64.4352 252.68C64.7874 252.419 65.3224 252.158 66.1052 252.158C67.3447 252.158 68.3885 253.202 68.3885 254.833V258.551H67.0838V254.833C67.0838 253.906 66.5097 253.397 65.779 253.397C64.931 253.397 64.2786 254.05 64.2786 255.094V258.551H62.9738V254.833C62.9738 253.906 62.3998 253.397 61.6691 253.397C60.821 253.397 60.1687 254.05 60.1687 255.094V258.551H58.8639ZM74.979 256.594L75.7618 257.507C75.5922 257.729 75.3704 257.925 75.1095 258.094C74.6528 258.395 74.0135 258.682 73.0871 258.682C71.2605 258.682 69.8253 257.246 69.8253 255.42C69.8253 253.593 71.2605 252.158 73.0219 252.158C74.7963 252.158 76.088 253.45 76.088 255.224C76.088 255.42 76.0619 255.576 76.0489 255.694L76.0228 255.876H71.1953C71.3388 256.725 72.0955 257.442 73.1524 257.442C73.7134 257.442 74.1701 257.233 74.4832 257.025C74.6659 256.907 74.8355 256.764 74.979 256.594ZM71.1953 254.767H74.7181C74.5223 253.919 73.9483 253.332 73.0219 253.332C72.0303 253.332 71.4562 253.919 71.1953 254.767ZM77.5176 258.551V252.288H78.8224V253.202C78.9529 253.006 79.1094 252.836 79.3051 252.68C79.6313 252.419 80.1141 252.158 80.7795 252.158C82.2147 252.158 83.2585 253.189 83.2585 254.898V258.551H81.9538V254.898C81.9538 253.972 81.3666 253.397 80.5186 253.397C79.54 253.397 78.8224 254.115 78.8224 255.159V258.551H77.5176ZM85.6111 256.594V253.528H84.4369V252.288H85.1545C85.5589 252.288 85.7416 252.093 85.7416 251.571V250.201H86.9159V252.288H88.3511V253.528H86.9159V256.464C86.9159 257.116 87.216 257.442 87.8292 257.442C88.0249 257.442 88.1945 257.403 88.338 257.351L88.5468 257.246V258.486L88.2728 258.59C88.1032 258.642 87.8683 258.682 87.5682 258.682C86.3157 258.682 85.6111 257.964 85.6111 256.594Z" fill="#636D7E"/>
<path d="M226.441 107.283V101.185L238.066 85.3685H244.735V101.948H247.784V107.283H244.735V112.047H239.018V107.283H226.441ZM232.349 101.948H239.018V92.8005L232.349 101.948ZM252.161 96.8023L259.593 85.3685H265.501L259.784 94.1344L260.165 94.0582C260.432 94.0201 260.699 93.9439 261.118 93.9439C265.882 93.9439 270.074 98.1363 270.074 103.281C270.074 108.427 265.882 112.619 259.974 112.619C254.067 112.619 249.875 108.427 249.875 103.281C249.875 101.49 250.446 99.8513 251.018 98.6698C251.361 97.9838 251.742 97.374 252.161 96.8023ZM259.974 107.474C262.452 107.474 264.167 105.759 264.167 103.281C264.167 100.804 262.452 99.0891 259.974 99.0891C257.497 99.0891 255.782 100.804 255.782 103.281C255.782 105.759 257.497 107.474 259.974 107.474Z" fill="#039635"/>
<path d="M283.72 111.11V101.561H280.351V99.8764H288.856V101.561H285.486V111.11H283.72ZM288.868 107.258C288.868 105.012 290.633 103.246 292.879 103.246C295.126 103.246 296.891 105.012 296.891 107.258C296.891 109.505 295.126 111.27 292.879 111.27C290.633 111.27 288.868 109.505 288.868 107.258ZM292.879 109.746C294.243 109.746 295.287 108.719 295.287 107.258C295.287 105.798 294.243 104.771 292.879 104.771C291.515 104.771 290.472 105.798 290.472 107.258C290.472 108.719 291.515 109.746 292.879 109.746ZM299.46 108.703V104.931H298.016V103.407H298.898C299.396 103.407 299.621 103.166 299.621 102.524V100.839H301.065V103.407H302.83V104.931H301.065V108.542C301.065 109.344 301.434 109.746 302.188 109.746C302.429 109.746 302.638 109.697 302.814 109.633L303.071 109.505V111.029L302.734 111.158C302.525 111.222 302.236 111.27 301.867 111.27C300.327 111.27 299.46 110.387 299.46 108.703ZM309.326 111.11V109.986C309.165 110.227 308.956 110.436 308.716 110.628C308.282 110.949 307.673 111.27 306.838 111.27C305.298 111.27 304.271 110.227 304.271 109.023C304.271 107.74 305.153 106.857 306.517 106.616L309.326 106.135C309.326 105.316 308.684 104.691 307.721 104.691C307.095 104.691 306.63 104.963 306.26 105.22C306.052 105.365 305.875 105.541 305.715 105.734L304.672 104.691C304.88 104.418 305.137 104.177 305.442 103.969C305.956 103.599 306.694 103.246 307.721 103.246C309.646 103.246 310.93 104.53 310.93 106.215V111.11H309.326ZM309.326 107.659V107.419L307.079 107.82C306.26 107.964 305.875 108.366 305.875 108.863C305.875 109.425 306.341 109.906 307.159 109.906C308.363 109.906 309.326 108.943 309.326 107.659ZM313.25 111.11V99.8764H314.854V111.11H313.25ZM321.032 111.11V99.8764H322.797V111.11H321.032ZM325.518 111.11V103.407H327.123V104.53C327.284 104.289 327.476 104.081 327.717 103.888C328.118 103.567 328.712 103.246 329.53 103.246C331.295 103.246 332.579 104.514 332.579 106.616V111.11H330.974V106.616C330.974 105.477 330.252 104.771 329.209 104.771C328.006 104.771 327.123 105.653 327.123 106.937V111.11H325.518ZM336.757 111.11L333.708 103.407H335.473L337.639 109.104L339.806 103.407H341.571L338.522 111.11H336.757ZM342.369 107.258C342.369 105.012 344.135 103.246 346.381 103.246C348.628 103.246 350.393 105.012 350.393 107.258C350.393 109.505 348.628 111.27 346.381 111.27C344.135 111.27 342.369 109.505 342.369 107.258ZM346.381 109.746C347.745 109.746 348.788 108.719 348.788 107.258C348.788 105.798 347.745 104.771 346.381 104.771C345.017 104.771 343.974 105.798 343.974 107.258C343.974 108.719 345.017 109.746 346.381 109.746ZM352.24 111.11V103.407H353.845V111.11H352.24ZM352.079 101C352.079 100.438 352.545 100.037 353.042 100.037C353.54 100.037 354.005 100.438 354.005 101C354.005 101.561 353.54 101.963 353.042 101.963C352.545 101.963 352.079 101.561 352.079 101ZM361.868 108.622L362.992 109.665C362.751 109.97 362.478 110.227 362.157 110.468C361.595 110.869 360.793 111.27 359.702 111.27C357.455 111.27 355.69 109.505 355.69 107.258C355.69 105.012 357.455 103.246 359.702 103.246C360.793 103.246 361.595 103.632 362.125 104.017C362.43 104.241 362.703 104.498 362.911 104.771L361.788 105.814C361.644 105.621 361.467 105.445 361.258 105.3C360.889 105.044 360.392 104.771 359.702 104.771C358.338 104.771 357.295 105.798 357.295 107.258C357.295 108.719 358.338 109.746 359.702 109.746C360.392 109.746 360.921 109.489 361.291 109.184C361.499 109.023 361.692 108.831 361.868 108.622ZM370.209 108.703L371.172 109.826C370.963 110.099 370.691 110.339 370.37 110.548C369.808 110.917 369.022 111.27 367.882 111.27C365.636 111.27 363.87 109.505 363.87 107.258C363.87 105.012 365.636 103.246 367.802 103.246C369.985 103.246 371.573 104.835 371.573 107.018C371.573 107.258 371.541 107.451 371.525 107.595L371.493 107.82H365.555C365.732 108.863 366.663 109.746 367.963 109.746C368.653 109.746 369.214 109.489 369.599 109.232C369.824 109.088 370.033 108.911 370.209 108.703ZM365.555 106.456H369.888C369.648 105.413 368.941 104.691 367.802 104.691C366.582 104.691 365.876 105.413 365.555 106.456ZM372.609 109.826L373.652 108.783C373.813 108.991 373.989 109.168 374.198 109.312C374.567 109.569 375.033 109.826 375.658 109.826C376.557 109.826 377.022 109.36 377.022 108.863C377.022 107.579 372.93 108.237 372.93 105.493C372.93 104.289 373.989 103.246 375.739 103.246C376.653 103.246 377.343 103.519 377.793 103.776C378.066 103.92 378.29 104.097 378.467 104.289L377.424 105.333C377.295 105.22 377.151 105.108 376.974 105.012C376.669 104.835 376.252 104.691 375.739 104.691C374.92 104.691 374.535 105.092 374.535 105.493C374.535 106.777 378.627 106.135 378.627 108.863C378.627 110.147 377.52 111.27 375.658 111.27C374.631 111.27 373.893 110.917 373.38 110.548C373.075 110.339 372.818 110.099 372.609 109.826Z" fill="#636D7E"/>
<rect x="225.87" y="138.098" width="168.498" height="27.08" rx="13.54" fill="#F5F5F5"/>
<path d="M248.25 156.348L245.712 153.81M247.083 150.514C247.083 153.092 244.994 155.181 242.417 155.181C239.839 155.181 237.75 153.092 237.75 150.514C237.75 147.937 239.839 145.848 242.417 145.848C244.994 145.848 247.083 147.937 247.083 150.514Z" stroke="#9DA4AE" stroke-width="1.16667" stroke-linecap="round" stroke-linejoin="round"/>
<rect x="722.337" y="196.27" width="496.467" height="16.0474" rx="8.02371" transform="rotate(-180 722.337 196.27)" fill="url(#paint0_linear_212_3020)"/>
<rect x="226.371" y="218.836" width="495.464" height="38.6581" rx="9.49852" fill="#F5F5F5"/>
<path d="M253.702 242.665L251.164 234.943H252.433L254.309 240.735L256.129 234.943H257.343L259.163 240.735L261.038 234.943H262.307L259.77 242.665H258.556L256.736 236.873L254.915 242.665H253.702ZM265.838 242.665V241.893C265.727 242.059 265.584 242.202 265.418 242.334C265.121 242.555 264.701 242.776 264.128 242.776C263.068 242.776 262.362 242.059 262.362 241.231C262.362 240.349 262.969 239.742 263.907 239.576L265.838 239.245C265.838 238.683 265.396 238.252 264.734 238.252C264.304 238.252 263.984 238.44 263.73 238.616C263.587 238.716 263.466 238.837 263.355 238.969L262.638 238.252C262.782 238.065 262.958 237.899 263.168 237.756C263.521 237.502 264.028 237.259 264.734 237.259C266.058 237.259 266.941 238.142 266.941 239.3V242.665H265.838ZM265.838 240.293V240.128L264.293 240.404C263.73 240.503 263.466 240.779 263.466 241.121C263.466 241.507 263.786 241.838 264.348 241.838C265.176 241.838 265.838 241.176 265.838 240.293ZM272.452 242.665V241.893C272.342 242.059 272.198 242.202 272.022 242.334C271.724 242.555 271.261 242.776 270.632 242.776C269.308 242.776 268.149 241.617 268.149 240.018C268.149 238.418 269.308 237.259 270.632 237.259C271.261 237.259 271.724 237.48 272.022 237.701C272.198 237.833 272.342 237.977 272.452 238.142V234.943H273.555V242.665H272.452ZM270.852 241.728C271.735 241.728 272.452 241.022 272.452 240.018C272.452 239.014 271.735 238.308 270.852 238.308C269.97 238.308 269.253 239.014 269.253 240.018C269.253 241.022 269.97 241.728 270.852 241.728ZM279.187 241.011L279.849 241.783C279.706 241.97 279.518 242.136 279.297 242.279C278.911 242.533 278.371 242.776 277.587 242.776C276.043 242.776 274.829 241.562 274.829 240.018C274.829 238.473 276.043 237.259 277.532 237.259C279.033 237.259 280.125 238.352 280.125 239.852C280.125 240.018 280.103 240.15 280.092 240.249L280.07 240.404H275.988C276.109 241.121 276.749 241.728 277.643 241.728C278.117 241.728 278.503 241.551 278.768 241.375C278.922 241.275 279.066 241.154 279.187 241.011ZM275.988 239.466H278.966C278.801 238.749 278.316 238.252 277.532 238.252C276.694 238.252 276.208 238.749 275.988 239.466ZM285.302 242.665L282.765 234.943H284.033L285.909 240.735L287.729 234.943H288.943L290.763 240.735L292.639 234.943H293.907L291.37 242.665H290.156L288.336 236.873L286.516 242.665H285.302ZM297.438 242.665V241.893C297.328 242.059 297.184 242.202 297.019 242.334C296.721 242.555 296.302 242.776 295.728 242.776C294.669 242.776 293.963 242.059 293.963 241.231C293.963 240.349 294.569 239.742 295.507 239.576L297.438 239.245C297.438 238.683 296.997 238.252 296.335 238.252C295.904 238.252 295.584 238.44 295.331 238.616C295.187 238.716 295.066 238.837 294.956 238.969L294.238 238.252C294.382 238.065 294.558 237.899 294.768 237.756C295.121 237.502 295.629 237.259 296.335 237.259C297.659 237.259 298.541 238.142 298.541 239.3V242.665H297.438ZM297.438 240.293V240.128L295.893 240.404C295.331 240.503 295.066 240.779 295.066 241.121C295.066 241.507 295.386 241.838 295.948 241.838C296.776 241.838 297.438 241.176 297.438 240.293ZM300.081 242.665V237.37H301.184V238.087C301.305 237.943 301.438 237.8 301.592 237.679C301.857 237.469 302.254 237.259 302.784 237.259H303.059V238.418L302.916 238.396C302.828 238.385 302.739 238.363 302.618 238.363C301.857 238.363 301.184 239.025 301.184 239.962V242.665H300.081ZM307.975 241.011L308.637 241.783C308.494 241.97 308.306 242.136 308.086 242.279C307.7 242.533 307.159 242.776 306.376 242.776C304.831 242.776 303.617 241.562 303.617 240.018C303.617 238.473 304.831 237.259 306.32 237.259C307.821 237.259 308.913 238.352 308.913 239.852C308.913 240.018 308.891 240.15 308.88 240.249L308.858 240.404H304.776C304.897 241.121 305.537 241.728 306.431 241.728C306.905 241.728 307.291 241.551 307.556 241.375C307.711 241.275 307.854 241.154 307.975 241.011ZM304.776 239.466H307.755C307.589 238.749 307.104 238.252 306.32 238.252C305.482 238.252 304.997 238.749 304.776 239.466ZM310.122 242.665V237.37H311.225V238.142C311.336 237.977 311.468 237.833 311.633 237.701C311.909 237.48 312.317 237.259 312.88 237.259C314.094 237.259 314.976 238.131 314.976 239.576V242.665H313.873V239.576C313.873 238.793 313.377 238.308 312.659 238.308C311.832 238.308 311.225 238.914 311.225 239.797V242.665H310.122Z" fill="#636D7E"/>
<path d="M342.764 241.507H346.515V242.665H341.33C341.33 239.19 345.302 239.091 345.302 237.204C345.302 236.487 344.805 235.991 343.922 235.991C343.338 235.991 342.974 236.255 342.742 236.52C342.61 236.675 342.51 236.851 342.433 237.039L341.44 236.597C341.539 236.266 341.705 235.969 341.915 235.715C342.279 235.274 342.896 234.832 343.922 234.832C345.467 234.832 346.515 235.88 346.515 237.204C346.515 239.466 343.647 239.797 342.764 241.507ZM347.338 241.617L348.165 240.79C348.287 240.955 348.441 241.099 348.629 241.231C348.938 241.452 349.39 241.672 350.041 241.672C351.045 241.672 351.585 241.121 351.585 240.404C351.585 239.742 351.045 239.19 350.041 239.19H349.213V238.032H350.041C350.879 238.032 351.31 237.601 351.31 236.984C351.31 236.366 350.879 235.936 350.041 235.936C349.511 235.936 349.114 236.134 348.816 236.322C348.651 236.443 348.507 236.564 348.386 236.708L347.558 235.88C347.746 235.693 347.956 235.516 348.198 235.362C348.629 235.097 349.235 234.832 350.041 234.832C351.585 234.832 352.523 235.77 352.523 236.873C352.523 237.524 352.236 237.943 351.938 238.208C351.773 238.363 351.574 238.484 351.365 238.583C351.63 238.683 351.872 238.815 352.082 238.981C352.435 239.278 352.799 239.742 352.799 240.459C352.799 241.739 351.751 242.776 350.041 242.776C349.114 242.776 348.463 242.5 348.011 242.202C347.746 242.037 347.525 241.838 347.338 241.617ZM353.355 244.982L356.665 234.832H357.658L354.348 244.982H353.355ZM363.446 238.804C363.446 236.873 362.509 235.936 361.46 235.936C360.412 235.936 359.475 236.873 359.475 238.804C359.475 240.735 360.412 241.672 361.46 241.672C362.509 241.672 363.446 240.735 363.446 238.804ZM361.46 242.776C359.695 242.776 358.261 241.33 358.261 238.804C358.261 236.278 359.695 234.832 361.46 234.832C363.226 234.832 364.66 236.278 364.66 238.804C364.66 241.33 363.226 242.776 361.46 242.776ZM366.32 238.473L368.581 234.943H369.905L368.14 237.646L368.261 237.624C368.338 237.612 368.471 237.59 368.636 237.59C370.126 237.59 371.284 238.749 371.284 240.183C371.284 241.617 370.126 242.776 368.526 242.776C366.926 242.776 365.768 241.617 365.768 240.183C365.768 239.742 365.9 239.323 366.044 239.003C366.121 238.815 366.22 238.639 366.32 238.473ZM366.981 240.183C366.981 241.011 367.643 241.672 368.526 241.672C369.409 241.672 370.071 241.011 370.071 240.183C370.071 239.356 369.409 238.694 368.526 238.694C367.643 238.694 366.981 239.356 366.981 240.183ZM371.779 244.982L375.089 234.832H376.082L372.772 244.982H371.779ZM377.898 241.507H381.649V242.665H376.464C376.464 239.19 380.436 239.091 380.436 237.204C380.436 236.487 379.939 235.991 379.057 235.991C378.472 235.991 378.108 236.255 377.876 236.52C377.744 236.675 377.644 236.851 377.567 237.039L376.574 236.597C376.674 236.266 376.839 235.969 377.049 235.715C377.413 235.274 378.031 234.832 379.057 234.832C380.601 234.832 381.649 235.88 381.649 237.204C381.649 239.466 378.781 239.797 377.898 241.507ZM388.043 238.804C388.043 236.873 387.106 235.936 386.058 235.936C385.009 235.936 384.072 236.873 384.072 238.804C384.072 240.735 385.009 241.672 386.058 241.672C387.106 241.672 388.043 240.735 388.043 238.804ZM386.058 242.776C384.292 242.776 382.858 241.33 382.858 238.804C382.858 236.278 384.292 234.832 386.058 234.832C387.823 234.832 389.257 236.278 389.257 238.804C389.257 241.33 387.823 242.776 386.058 242.776ZM391.689 241.507H395.44V242.665H390.255C390.255 239.19 394.226 239.091 394.226 237.204C394.226 236.487 393.73 235.991 392.847 235.991C392.263 235.991 391.899 236.255 391.667 236.52C391.534 236.675 391.435 236.851 391.358 237.039L390.365 236.597C390.464 236.266 390.63 235.969 390.839 235.715C391.203 235.274 391.821 234.832 392.847 234.832C394.392 234.832 395.44 235.88 395.44 237.204C395.44 239.466 392.572 239.797 391.689 241.507ZM396.263 241.617L397.09 240.79C397.211 240.955 397.366 241.099 397.553 241.231C397.862 241.452 398.315 241.672 398.966 241.672C399.97 241.672 400.51 241.121 400.51 240.404C400.51 239.742 399.97 239.19 398.966 239.19H398.138V238.032H398.966C399.804 238.032 400.234 237.601 400.234 236.984C400.234 236.366 399.804 235.936 398.966 235.936C398.436 235.936 398.039 236.134 397.741 236.322C397.576 236.443 397.432 236.564 397.311 236.708L396.483 235.88C396.671 235.693 396.881 235.516 397.123 235.362C397.553 235.097 398.16 234.832 398.966 234.832C400.51 234.832 401.448 235.77 401.448 236.873C401.448 237.524 401.161 237.943 400.863 238.208C400.698 238.363 400.499 238.484 400.29 238.583C400.554 238.683 400.797 238.815 401.007 238.981C401.36 239.278 401.724 239.742 401.724 240.459C401.724 241.739 400.676 242.776 398.966 242.776C398.039 242.776 397.388 242.5 396.936 242.202C396.671 242.037 396.45 241.838 396.263 241.617Z" fill="#636D7E"/>
<rect x="427.944" y="229.367" width="32.1918" height="17.5959" rx="4.61712" fill="#BEF4D2"/>
<path d="M435.463 241.665V235.201H438.049C439.304 235.201 440.219 236.125 440.219 237.279C440.219 238.433 439.304 239.357 438.049 239.357H436.479V241.665H435.463ZM436.479 238.433H438.049C438.695 238.433 439.203 237.925 439.203 237.279C439.203 236.633 438.695 236.125 438.049 236.125H436.479V238.433ZM443.588 241.665V241.019C443.496 241.157 443.376 241.277 443.237 241.388C442.988 241.573 442.637 241.758 442.157 241.758C441.27 241.758 440.679 241.157 440.679 240.465C440.679 239.726 441.187 239.218 441.972 239.08L443.588 238.803C443.588 238.332 443.219 237.971 442.665 237.971C442.304 237.971 442.037 238.128 441.824 238.276C441.704 238.359 441.603 238.461 441.51 238.572L440.91 237.971C441.03 237.814 441.178 237.676 441.353 237.556C441.649 237.344 442.074 237.14 442.665 237.14C443.773 237.14 444.511 237.879 444.511 238.849V241.665H443.588ZM443.588 239.68V239.541L442.295 239.772C441.824 239.855 441.603 240.086 441.603 240.372C441.603 240.696 441.87 240.973 442.341 240.973C443.034 240.973 443.588 240.419 443.588 239.68ZM445.846 241.665V237.233H446.769V241.665H445.846ZM445.754 235.848C445.754 235.524 446.021 235.294 446.308 235.294C446.594 235.294 446.862 235.524 446.862 235.848C446.862 236.171 446.594 236.402 446.308 236.402C446.021 236.402 445.754 236.171 445.754 235.848ZM451.433 241.665V241.019C451.34 241.157 451.22 241.277 451.073 241.388C450.823 241.573 450.435 241.758 449.909 241.758C448.801 241.758 447.831 240.788 447.831 239.449C447.831 238.11 448.801 237.14 449.909 237.14C450.435 237.14 450.823 237.325 451.073 237.51C451.22 237.621 451.34 237.741 451.433 237.879V235.201H452.356V241.665H451.433ZM450.094 240.88C450.833 240.88 451.433 240.289 451.433 239.449C451.433 238.609 450.833 238.018 450.094 238.018C449.355 238.018 448.755 238.609 448.755 239.449C448.755 240.289 449.355 240.88 450.094 240.88Z" fill="#188B42"/>
<path d="M490.321 239.687V238.583H493.134V241.286C492.902 241.562 492.616 241.816 492.285 242.037C491.722 242.423 490.894 242.776 489.824 242.776C487.507 242.776 485.742 241.011 485.742 238.804C485.742 236.597 487.507 234.832 489.824 234.832C490.883 234.832 491.656 235.196 492.185 235.582C492.483 235.803 492.748 236.046 492.969 236.322L492.196 237.094C492.042 236.884 491.843 236.686 491.612 236.52C491.214 236.222 490.619 235.936 489.824 235.936C488.225 235.936 486.956 237.204 486.956 238.804C486.956 240.404 488.225 241.672 489.824 241.672C490.519 241.672 491.038 241.474 491.391 241.264C491.601 241.143 491.777 240.999 491.92 240.845V239.687H490.321ZM494.841 242.665V234.943H495.944V238.142C496.054 237.977 496.187 237.833 496.352 237.701C496.628 237.48 497.036 237.259 497.599 237.259C498.812 237.259 499.695 238.131 499.695 239.576V242.665H498.592V239.576C498.592 238.793 498.095 238.308 497.378 238.308C496.551 238.308 495.944 238.914 495.944 239.797V242.665H494.841ZM505.156 240.955L505.928 241.672C505.763 241.882 505.575 242.059 505.354 242.224C504.968 242.5 504.417 242.776 503.666 242.776C502.122 242.776 500.908 241.562 500.908 240.018C500.908 238.473 502.122 237.259 503.666 237.259C504.417 237.259 504.968 237.524 505.332 237.789C505.542 237.943 505.729 238.12 505.873 238.308L505.101 239.025C505.001 238.892 504.88 238.771 504.736 238.672C504.483 238.495 504.141 238.308 503.666 238.308C502.729 238.308 502.011 239.014 502.011 240.018C502.011 241.022 502.729 241.728 503.666 241.728C504.141 241.728 504.505 241.551 504.759 241.341C504.902 241.231 505.034 241.099 505.156 240.955ZM508.736 241.617L509.563 240.79C509.685 240.955 509.839 241.099 510.027 241.231C510.335 241.452 510.788 241.672 511.439 241.672C512.443 241.672 512.983 241.121 512.983 240.404C512.983 239.742 512.443 239.19 511.439 239.19H510.611V238.032H511.439C512.277 238.032 512.707 237.601 512.707 236.984C512.707 236.366 512.277 235.936 511.439 235.936C510.909 235.936 510.512 236.134 510.214 236.322C510.049 236.443 509.905 236.564 509.784 236.708L508.956 235.88C509.144 235.693 509.354 235.516 509.596 235.362C510.027 235.097 510.633 234.832 511.439 234.832C512.983 234.832 513.921 235.77 513.921 236.873C513.921 237.524 513.634 237.943 513.336 238.208C513.171 238.363 512.972 238.484 512.763 238.583C513.027 238.683 513.27 238.815 513.48 238.981C513.833 239.278 514.197 239.742 514.197 240.459C514.197 241.739 513.149 242.776 511.439 242.776C510.512 242.776 509.861 242.5 509.409 242.202C509.144 242.037 508.923 241.838 508.736 241.617ZM520.545 238.804C520.545 236.873 519.608 235.936 518.559 235.936C517.511 235.936 516.574 236.873 516.574 238.804C516.574 240.735 517.511 241.672 518.559 241.672C519.608 241.672 520.545 240.735 520.545 238.804ZM518.559 242.776C516.794 242.776 515.36 241.33 515.36 238.804C515.36 236.278 516.794 234.832 518.559 234.832C520.325 234.832 521.759 236.278 521.759 238.804C521.759 241.33 520.325 242.776 518.559 242.776ZM528.163 238.804C528.163 236.873 527.225 235.936 526.177 235.936C525.129 235.936 524.191 236.873 524.191 238.804C524.191 240.735 525.129 241.672 526.177 241.672C527.225 241.672 528.163 240.735 528.163 238.804ZM526.177 242.776C524.411 242.776 522.977 241.33 522.977 238.804C522.977 236.278 524.411 234.832 526.177 234.832C527.942 234.832 529.376 236.278 529.376 238.804C529.376 241.33 527.942 242.776 526.177 242.776ZM535.78 238.804C535.78 236.873 534.842 235.936 533.794 235.936C532.746 235.936 531.808 236.873 531.808 238.804C531.808 240.735 532.746 241.672 533.794 241.672C534.842 241.672 535.78 240.735 535.78 238.804ZM533.794 242.776C532.029 242.776 530.594 241.33 530.594 238.804C530.594 236.278 532.029 234.832 533.794 234.832C535.559 234.832 536.993 236.278 536.993 238.804C536.993 241.33 535.559 242.776 533.794 242.776ZM538.819 242.776C538.432 242.776 538.101 242.445 538.101 242.059C538.101 241.672 538.432 241.341 538.819 241.341C539.205 241.341 539.536 241.672 539.536 242.059C539.536 242.445 539.205 242.776 538.819 242.776ZM545.821 238.804C545.821 236.873 544.883 235.936 543.835 235.936C542.787 235.936 541.849 236.873 541.849 238.804C541.849 240.735 542.787 241.672 543.835 241.672C544.883 241.672 545.821 240.735 545.821 238.804ZM543.835 242.776C542.07 242.776 540.636 241.33 540.636 238.804C540.636 236.278 542.07 234.832 543.835 234.832C545.601 234.832 547.035 236.278 547.035 238.804C547.035 241.33 545.601 242.776 543.835 242.776ZM553.438 238.804C553.438 236.873 552.501 235.936 551.453 235.936C550.404 235.936 549.467 236.873 549.467 238.804C549.467 240.735 550.404 241.672 551.453 241.672C552.501 241.672 553.438 240.735 553.438 238.804ZM551.453 242.776C549.687 242.776 548.253 241.33 548.253 238.804C548.253 236.278 549.687 234.832 551.453 234.832C553.218 234.832 554.652 236.278 554.652 238.804C554.652 241.33 553.218 242.776 551.453 242.776Z" fill="#636D7E"/>
<rect x="226.371" y="218.836" width="495.464" height="38.6581" rx="9.49852" stroke="#F5F5F5" stroke-width="1.00296"/>
<rect x="225.87" y="280.061" width="496.467" height="16.0474" rx="8.02371" fill="url(#paint1_linear_212_3020)"/>
<rect x="722.337" y="334.221" width="496.467" height="16.0474" rx="8.02371" transform="rotate(-180 722.337 334.221)" fill="url(#paint2_linear_212_3020)"/>
<rect x="722.337" y="372.334" width="496.467" height="16.0474" rx="8.02371" transform="rotate(-180 722.337 372.334)" fill="url(#paint3_linear_212_3020)"/>
<rect x="722.337" y="410.446" width="496.467" height="16.0474" rx="8.02371" transform="rotate(-180 722.337 410.446)" fill="url(#paint4_linear_212_3020)"/>
<rect x="225.87" y="432.512" width="496.467" height="16.0474" rx="8.02371" fill="url(#paint5_linear_212_3020)"/>
<defs>
<linearGradient id="paint0_linear_212_3020" x1="947.467" y1="193.643" x2="970.57" y2="212.317" gradientUnits="userSpaceOnUse">
<stop stop-color="#F5F5F5"/>
<stop offset="1" stop-color="#F5F5F5" stop-opacity="0.6"/>
</linearGradient>
<linearGradient id="paint1_linear_212_3020" x1="451" y1="277.435" x2="474.103" y2="296.108" gradientUnits="userSpaceOnUse">
<stop stop-color="#F5F5F5"/>
<stop offset="1" stop-color="#F5F5F5" stop-opacity="0.6"/>
</linearGradient>
<linearGradient id="paint2_linear_212_3020" x1="947.467" y1="331.595" x2="970.57" y2="350.269" gradientUnits="userSpaceOnUse">
<stop stop-color="#F5F5F5"/>
<stop offset="1" stop-color="#F5F5F5" stop-opacity="0.6"/>
</linearGradient>
<linearGradient id="paint3_linear_212_3020" x1="947.467" y1="369.707" x2="970.57" y2="388.381" gradientUnits="userSpaceOnUse">
<stop stop-color="#F5F5F5"/>
<stop offset="1" stop-color="#F5F5F5" stop-opacity="0.6"/>
</linearGradient>
<linearGradient id="paint4_linear_212_3020" x1="947.467" y1="407.82" x2="970.57" y2="426.494" gradientUnits="userSpaceOnUse">
<stop stop-color="#F5F5F5"/>
<stop offset="1" stop-color="#F5F5F5" stop-opacity="0.6"/>
</linearGradient>
<linearGradient id="paint5_linear_212_3020" x1="451" y1="429.885" x2="474.103" y2="448.559" gradientUnits="userSpaceOnUse">
<stop stop-color="#F5F5F5"/>
<stop offset="1" stop-color="#F5F5F5" stop-opacity="0.6"/>
</linearGradient>
</defs>
</svg>
