<svg width="134" height="18" viewBox="0 0 134 18" fill="none" xmlns="http://www.w3.org/2000/svg">
<path d="M0.16 17V0.199999H3.76V17H0.16ZM7.48188 17V5.24H10.7219V6.92H10.8419C11.1059 6.56 11.3939 6.248 11.7299 5.96C12.3059 5.48 13.1699 5 14.3219 5C16.7219 5 18.6419 6.92 18.6419 9.92V17H15.4019V10.4C15.4019 8.96 14.5859 8.12 13.2419 8.12C11.8019 8.12 10.7219 9.2 10.7219 10.76V17H7.48188ZM24.2809 17L19.8409 5.24H23.3209L26.0329 13.16H26.1289L28.8409 5.24H32.3209L27.8809 17H24.2809ZM39.2753 14.24C40.9553 14.24 42.2753 12.92 42.2753 11.12C42.2753 9.32 40.9553 8 39.2753 8C37.5953 8 36.2753 9.32 36.2753 11.12C36.2753 12.92 37.5953 14.24 39.2753 14.24ZM33.0353 11.12C33.0353 7.76 35.7953 5 39.2753 5C42.7553 5 45.5153 7.76 45.5153 11.12C45.5153 14.48 42.7553 17.24 39.2753 17.24C35.7953 17.24 33.0353 14.48 33.0353 11.12ZM47.9116 17V5.24H51.1516V17H47.9116ZM47.6716 1.88C47.6716 0.92 48.5116 0.079999 49.5436 0.079999C50.5756 0.079999 51.3916 0.92 51.3916 1.88C51.3916 2.84 50.5516 3.68 49.5196 3.68C48.4876 3.68 47.6716 2.84 47.6716 1.88ZM62.6631 12.8L64.7031 14.84C64.3911 15.296 63.9831 15.68 63.5031 16.04C62.6631 16.64 61.4871 17.24 59.7831 17.24C56.3031 17.24 53.5431 14.48 53.5431 11.12C53.5431 7.76 56.3031 5 59.7831 5C61.4871 5 62.6631 5.6 63.5031 6.2C63.9831 6.56 64.3911 6.944 64.7031 7.4L62.6631 9.44C62.4471 9.176 62.1831 8.936 61.8951 8.72C61.3911 8.36 60.6711 8 59.7831 8C58.1031 8 56.7831 9.32 56.7831 11.12C56.7831 12.92 58.1031 14.24 59.7831 14.24C60.6711 14.24 61.3911 13.88 61.8951 13.52C62.1831 13.304 62.4471 13.064 62.6631 12.8ZM75.3775 13.04L77.0575 15.32C76.6975 15.68 76.2655 15.992 75.7615 16.28C74.8975 16.76 73.6495 17.24 72.0175 17.24C68.5375 17.24 65.7775 14.48 65.7775 11.12C65.7775 7.76 68.5375 5 71.8975 5C75.1375 5 77.7775 7.64 77.7775 10.88C77.7775 11.336 77.7295 11.648 77.7055 11.912L77.6575 12.32H69.1375C69.4975 13.4 70.4575 14.36 72.2575 14.36C73.2895 14.36 74.0335 14.072 74.5855 13.712C74.8975 13.52 75.1615 13.304 75.3775 13.04ZM69.1375 9.92H74.4175C74.0575 8.84 73.1215 7.88 71.7775 7.88C70.4335 7.88 69.4975 8.84 69.1375 9.92Z" fill="#0F0F0F"/>
<path d="M84.505 17L78.985 0.199999H82.705L86.185 11.48H86.305L89.785 0.199999H93.145L96.625 11.48H96.745L100.225 0.199999H103.945L98.425 17H94.945L91.537 6.08H91.393L87.985 17H84.505ZM105.404 17V5.24H108.644V17H105.404ZM105.164 1.88C105.164 0.92 106.004 0.079999 107.036 0.079999C108.068 0.079999 108.884 0.92 108.884 1.88C108.884 2.84 108.044 3.68 107.012 3.68C105.98 3.68 105.164 2.84 105.164 1.88ZM110.555 15.08L112.475 13.04C112.715 13.304 113.003 13.52 113.315 13.712C113.867 14.072 114.635 14.36 115.595 14.36C116.675 14.36 117.035 14 117.035 13.52C117.035 12.2 111.035 12.44 111.035 8.6C111.035 6.68 112.715 5 115.715 5C117.227 5 118.355 5.456 119.123 5.912C119.579 6.176 119.963 6.488 120.275 6.8L118.355 8.84C118.163 8.672 117.923 8.504 117.659 8.36C117.203 8.096 116.555 7.88 115.715 7.88C114.875 7.88 114.515 8.24 114.515 8.6C114.515 9.92 120.515 9.68 120.515 13.52C120.515 15.536 118.835 17.24 115.595 17.24C113.963 17.24 112.715 16.712 111.851 16.16C111.347 15.848 110.915 15.488 110.555 15.08ZM131.557 13.04L133.237 15.32C132.877 15.68 132.445 15.992 131.941 16.28C131.077 16.76 129.829 17.24 128.197 17.24C124.717 17.24 121.957 14.48 121.957 11.12C121.957 7.76 124.717 5 128.077 5C131.317 5 133.957 7.64 133.957 10.88C133.957 11.336 133.909 11.648 133.885 11.912L133.837 12.32H125.317C125.677 13.4 126.637 14.36 128.437 14.36C129.469 14.36 130.213 14.072 130.765 13.712C131.077 13.52 131.341 13.304 131.557 13.04ZM125.317 9.92H130.597C130.237 8.84 129.301 7.88 127.957 7.88C126.613 7.88 125.677 8.84 125.317 9.92Z" fill="#039635"/>
</svg>
