<svg width="135" height="37" viewBox="0 0 135 37" fill="none" xmlns="http://www.w3.org/2000/svg">
<g clip-path="url(#clip0_56_2049)">
<path d="M50.3104 7.677H42.8647C42.3552 7.677 41.9219 8.04716 41.8424 8.55015L38.8311 27.6428C38.7712 28.0195 39.063 28.3592 39.4451 28.3592H42.9997C43.5093 28.3592 43.9426 27.9891 44.022 27.485L44.8342 22.3354C44.9126 21.8313 45.347 21.4612 45.8554 21.4612H48.2125C53.1171 21.4612 55.9478 19.0878 56.687 14.3845C57.0201 12.3269 56.7012 10.7101 55.7376 9.57789C54.6794 8.33458 52.8025 7.677 50.3104 7.677ZM51.1694 14.6502C50.7622 17.3219 48.7209 17.3219 46.7471 17.3219H45.6235L46.4118 12.3323C46.4586 12.0308 46.7199 11.8087 47.0247 11.8087H47.5397C48.8842 11.8087 50.1526 11.8087 50.808 12.5751C51.1988 13.0324 51.3186 13.7117 51.1694 14.6502Z" fill="#253B80"/>
<path d="M72.5668 14.5641H69.0013C68.6975 14.5641 68.4352 14.7862 68.3883 15.0878L68.2305 16.085L67.9812 15.7236C67.2093 14.6033 65.488 14.2288 63.77 14.2288C59.83 14.2288 56.4648 17.2129 55.8094 21.399C55.4686 23.4871 55.9531 25.4838 57.1376 26.8763C58.2241 28.1566 59.7788 28.6901 61.6285 28.6901C64.8032 28.6901 66.5637 26.6488 66.5637 26.6488L66.4047 27.6395C66.3448 28.0184 66.6366 28.358 67.0166 28.358H70.2283C70.7389 28.358 71.17 27.9879 71.2506 27.4838L73.1776 15.2805C73.2385 14.9048 72.9479 14.5641 72.5668 14.5641ZM67.5968 21.5035C67.2528 23.5405 65.6361 24.9079 63.5741 24.9079C62.5387 24.9079 61.7113 24.5759 61.18 23.9466C60.6531 23.3217 60.4527 22.4322 60.6204 21.4415C60.9416 19.4219 62.5855 18.0098 64.616 18.0098C65.6285 18.0098 66.4515 18.3463 66.9937 18.981C67.537 19.6222 67.7525 20.5171 67.5968 21.5035Z" fill="#253B80"/>
<path d="M91.5562 14.564H87.9733C87.6314 14.564 87.3102 14.7338 87.1165 15.018L82.1748 22.2971L80.0801 15.3021C79.9484 14.8644 79.5445 14.564 79.0872 14.564H75.5663C75.1385 14.564 74.8412 14.982 74.9773 15.3849L78.9239 26.9665L75.2136 32.2043C74.9218 32.6169 75.2158 33.1842 75.7198 33.1842H79.2984C79.6381 33.1842 79.956 33.0187 80.1487 32.74L92.0657 15.5384C92.351 15.1268 92.0581 14.564 91.5562 14.564Z" fill="#253B80"/>
<path d="M103.419 7.677H95.972C95.4635 7.677 95.0302 8.04716 94.9507 8.55015L91.9394 27.6428C91.8795 28.0195 92.1713 28.3592 92.5512 28.3592H96.3726C96.7275 28.3592 97.0313 28.1001 97.0868 27.7474L97.9414 22.3354C98.0198 21.8313 98.4542 21.4612 98.9626 21.4612H101.319C106.224 21.4612 109.054 19.0878 109.794 14.3845C110.128 12.3269 109.807 10.7101 108.844 9.57789C107.787 8.33458 105.911 7.677 103.419 7.677ZM104.278 14.6502C103.872 17.3219 101.83 17.3219 99.8554 17.3219H98.7329L99.5222 12.3323C99.569 12.0308 99.8282 11.8087 100.134 11.8087H100.649C101.993 11.8087 103.262 11.8087 103.917 12.5751C104.308 13.0324 104.427 13.7117 104.278 14.6502Z" fill="#179BD7"/>
<path d="M125.674 14.5641H122.111C121.805 14.5641 121.545 14.7862 121.499 15.0878L121.341 16.085L121.091 15.7236C120.319 14.6033 118.599 14.2288 116.881 14.2288C112.94 14.2288 109.576 17.2129 108.921 21.399C108.581 23.4871 109.064 25.4838 110.248 26.8763C111.337 28.1566 112.889 28.6901 114.739 28.6901C117.914 28.6901 119.674 26.6488 119.674 26.6488L119.515 27.6395C119.455 28.0184 119.747 28.358 120.129 28.358H123.34C123.848 28.358 124.282 27.9879 124.361 27.4838L126.289 15.2805C126.348 14.9048 126.056 14.5641 125.674 14.5641ZM120.704 21.5035C120.362 23.5405 118.743 24.9079 116.681 24.9079C115.648 24.9079 114.818 24.5759 114.287 23.9466C113.76 23.3217 113.562 22.4322 113.728 21.4415C114.051 19.4219 115.693 18.0098 117.723 18.0098C118.736 18.0098 119.559 18.3463 120.101 18.981C120.646 19.6222 120.862 20.5171 120.704 21.5035Z" fill="#179BD7"/>
<path d="M129.878 8.20078L126.822 27.643C126.762 28.0197 127.053 28.3593 127.433 28.3593H130.506C131.016 28.3593 131.45 27.9892 131.528 27.4851L134.542 8.39349C134.602 8.01679 134.31 7.67603 133.93 7.67603H130.489C130.186 7.67711 129.924 7.89921 129.878 8.20078Z" fill="#179BD7"/>
<path d="M7.91067 32.0697L8.48007 28.453L7.21172 28.4237H1.15523L5.36418 1.73611C5.37724 1.65555 5.4197 1.58042 5.48176 1.52708C5.54382 1.47373 5.62329 1.44434 5.70603 1.44434H15.9181C19.3084 1.44434 21.648 2.14982 22.8695 3.54228C23.4422 4.19551 23.8069 4.87813 23.9833 5.62934C24.1684 6.41756 24.1716 7.3593 23.9909 8.50788L23.9778 8.59172V9.32768L24.5505 9.65212C25.0328 9.90796 25.416 10.2008 25.71 10.5362C26.1999 11.0947 26.5167 11.8045 26.6506 12.6461C26.7889 13.5116 26.7432 14.5415 26.5167 15.7075C26.2554 17.0488 25.833 18.217 25.2625 19.1729C24.7378 20.0537 24.0693 20.7842 23.2756 21.3503C22.5179 21.8881 21.6175 22.2964 20.5996 22.5577C19.6132 22.8146 18.4886 22.9442 17.2551 22.9442H16.4603C15.892 22.9442 15.34 23.1489 14.9067 23.5157C14.4723 23.8903 14.1849 24.402 14.0967 24.9616L14.0368 25.2871L13.0309 31.6615L12.9851 31.8955C12.9732 31.9696 12.9525 32.0066 12.922 32.0316C12.8948 32.0545 12.8556 32.0697 12.8175 32.0697H7.91067Z" fill="#253B80"/>
<path d="M25.0925 8.67627C25.062 8.87115 25.0271 9.07038 24.9879 9.27506C23.6412 16.1895 19.0338 18.5781 13.1493 18.5781H10.1532C9.43354 18.5781 8.82713 19.1007 8.71499 19.8105L7.181 29.5392L6.7466 32.2969C6.67366 32.7629 7.03293 33.1831 7.50326 33.1831H12.8172C13.4465 33.1831 13.9811 32.7259 14.0802 32.1053L14.1324 31.8353L15.1329 25.4859L15.1972 25.1376C15.2952 24.5148 15.8308 24.0576 16.4601 24.0576H17.2548C22.4033 24.0576 26.4337 21.9672 27.6117 15.9184C28.1038 13.3915 27.8491 11.2816 26.547 9.79764C26.1529 9.35018 25.664 8.97893 25.0925 8.67627Z" fill="#179BD7"/>
<path d="M23.6836 8.11474C23.4779 8.05486 23.2656 8.00042 23.0478 7.95143C22.829 7.90353 22.6047 7.86107 22.3739 7.82405C21.5661 7.6934 20.681 7.63135 19.7327 7.63135H11.7285C11.5315 7.63135 11.3442 7.67599 11.1765 7.75655C10.8075 7.93401 10.5331 8.28348 10.4667 8.71135L8.76396 19.4961L8.71497 19.8107C8.8271 19.1009 9.43351 18.5783 10.1532 18.5783H13.1493C19.0338 18.5783 23.6412 16.1886 24.9879 9.2753C25.0282 9.07062 25.0619 8.87139 25.0924 8.67651C24.7517 8.49578 24.3826 8.34119 23.9852 8.20945C23.8872 8.17679 23.786 8.14522 23.6836 8.11474Z" fill="#222D65"/>
<path d="M10.4669 8.71157C10.5333 8.2837 10.8076 7.93423 11.1767 7.75786C11.3454 7.67729 11.5316 7.63265 11.7287 7.63265H19.7329C20.6811 7.63265 21.5663 7.69471 22.3741 7.82536C22.6049 7.86237 22.8292 7.90483 23.048 7.95273C23.2657 8.00173 23.478 8.05616 23.6838 8.11604C23.7861 8.14653 23.8874 8.1781 23.9865 8.20967C24.3838 8.3414 24.7529 8.49709 25.0937 8.67673C25.4943 6.12153 25.0904 4.38177 23.7088 2.8064C22.1857 1.07209 19.4367 0.32959 15.9191 0.32959H5.70702C4.98847 0.32959 4.37553 0.852171 4.26448 1.5631L0.0108902 28.525C-0.0729405 29.0585 0.338592 29.5397 0.876414 29.5397H7.18113L8.76412 19.4963L10.4669 8.71157Z" fill="#253B80"/>
</g>
<defs>
<clipPath id="clip0_56_2049">
<rect width="135" height="35.9274" fill="white" transform="translate(0 0.32959)"/>
</clipPath>
</defs>
</svg>
