<svg width="29" height="33" viewBox="0 0 29 33" fill="none" xmlns="http://www.w3.org/2000/svg">
<path d="M20.6425 0.37207H8.3575C2.215 0.37207 0.6875 2.01332 0.6875 8.56207V26.8596C0.6875 31.1821 3.06 32.2058 5.93625 29.1183L5.9525 29.1021C7.285 27.6883 9.31625 27.8021 10.47 29.3458L12.1112 31.5396C13.4275 33.2783 15.5562 33.2783 16.8725 31.5396L18.5138 29.3458C19.6838 27.7858 21.715 27.6721 23.0475 29.1021C25.94 32.1896 28.2962 31.1658 28.2962 26.8433V8.56207C28.3125 2.01332 26.785 0.37207 20.6425 0.37207ZM7.6425 16.6221C6.74875 16.6221 6.0175 15.8908 6.0175 14.9971C6.0175 14.1033 6.74875 13.3721 7.6425 13.3721C8.53625 13.3721 9.2675 14.1033 9.2675 14.9971C9.2675 15.8908 8.53625 16.6221 7.6425 16.6221ZM7.6425 10.1221C6.74875 10.1221 6.0175 9.39082 6.0175 8.49707C6.0175 7.60332 6.74875 6.87207 7.6425 6.87207C8.53625 6.87207 9.2675 7.60332 9.2675 8.49707C9.2675 9.39082 8.53625 10.1221 7.6425 10.1221ZM21.3737 16.2158H12.4362C11.77 16.2158 11.2175 15.6633 11.2175 14.9971C11.2175 14.3308 11.77 13.7783 12.4362 13.7783H21.3737C22.04 13.7783 22.5925 14.3308 22.5925 14.9971C22.5925 15.6633 22.04 16.2158 21.3737 16.2158ZM21.3737 9.71582H12.4362C11.77 9.71582 11.2175 9.16332 11.2175 8.49707C11.2175 7.83082 11.77 7.27832 12.4362 7.27832H21.3737C22.04 7.27832 22.5925 7.83082 22.5925 8.49707C22.5925 9.16332 22.04 9.71582 21.3737 9.71582Z" fill="white"/>
</svg>
