<svg width="95" height="42" viewBox="0 0 95 42" fill="none" xmlns="http://www.w3.org/2000/svg">
<path d="M7.27521 3.28812H3.59167V18.0223H6.53851V20.2324H3.59167V40.8603H0.644836V1.078H7.27521V3.28812Z" fill="#999999"/>
<path d="M17.5891 40.8603H14.6423L14.2739 31.2831H12.0868L11.6955 40.8603H8.74863L10.9588 1.078H15.379L17.5891 40.8603ZM13.1689 2.55142L12.4322 20.2324L12.0868 29.0729H14.2739L13.1689 2.55142Z" fill="#999999"/>
<path d="M28.6398 17.2856H25.6929V4.76154C25.6929 4.39319 25.6469 4.0939 25.5548 3.86368C25.4781 3.61811 25.3706 3.43393 25.2325 3.31115C25.0943 3.17301 24.9332 3.08092 24.749 3.03488C24.5802 2.97349 24.4037 2.94279 24.2195 2.94279C24.0353 2.94279 23.8512 2.97349 23.667 3.03488C23.4981 3.08092 23.3447 3.17301 23.2065 3.31115C23.0684 3.43393 22.9533 3.61811 22.8612 3.86368C22.7845 4.0939 22.7461 4.39319 22.7461 4.76154V37.1767C22.7461 37.3609 22.7538 37.5834 22.7691 37.8444C22.7845 38.0899 22.8382 38.3278 22.9303 38.5581C23.0224 38.7883 23.1682 38.9878 23.3677 39.1566C23.5672 39.3101 23.8512 39.3868 24.2195 39.3868C24.5879 39.3868 24.8718 39.3101 25.0713 39.1566C25.2709 38.9878 25.4167 38.7883 25.5087 38.5581C25.6008 38.3278 25.6546 38.0899 25.6699 37.8444C25.6853 37.5834 25.6929 37.3609 25.6929 37.1767V21.7058H28.6398V37.1767C28.6398 37.3609 28.6167 37.6986 28.5707 38.1897C28.5247 38.6655 28.3635 39.1566 28.0872 39.6631C27.811 40.1696 27.3735 40.6147 26.775 40.9984C26.1764 41.3974 25.3246 41.597 24.2195 41.597C23.1144 41.597 22.2626 41.3974 21.6641 40.9984C21.0655 40.6147 20.6281 40.1696 20.3518 39.6631C20.0755 39.1566 19.9144 38.6655 19.8683 38.1897C19.8223 37.6986 19.7993 37.3609 19.7993 37.1767V4.76154C19.7993 4.05553 19.9297 3.44928 20.1906 2.94279C20.4515 2.42096 20.7892 1.99888 21.2036 1.67657C21.6334 1.35426 22.1091 1.11637 22.631 0.962887C23.1528 0.809406 23.6823 0.732666 24.2195 0.732666C24.7874 0.732666 25.3322 0.817081 25.8541 0.98591C26.3913 1.15474 26.8671 1.40798 27.2815 1.74564C27.6959 2.0833 28.0258 2.50537 28.2714 3.01186C28.517 3.51835 28.6398 4.10157 28.6398 4.76154V17.2856Z" fill="#999999"/>
<path d="M39.6904 1.078V3.28812H36.7436V40.8603H33.7967V3.28812H30.8499V1.078H39.6904Z" fill="#999999"/>
<path d="M50.741 37.1767C50.741 37.3609 50.718 37.6986 50.672 38.1897C50.6259 38.6655 50.4648 39.1566 50.1885 39.6631C49.9122 40.1696 49.4748 40.6147 48.8762 40.9984C48.2777 41.3974 47.4258 41.597 46.3208 41.597C45.2157 41.597 44.3639 41.3974 43.7653 40.9984C43.1667 40.6147 42.7293 40.1696 42.4531 39.6631C42.1768 39.1566 42.0156 38.6655 41.9696 38.1897C41.9235 37.6986 41.9005 37.3609 41.9005 37.1767V4.76154C41.9005 4.63876 41.9082 4.45458 41.9235 4.20901C41.9389 3.96344 41.9849 3.69485 42.0617 3.40323C42.1384 3.09627 42.2689 2.78931 42.4531 2.48235C42.6372 2.16004 42.8905 1.86843 43.2128 1.60751C43.5351 1.34659 43.9495 1.13939 44.456 0.98591C44.9625 0.817081 45.5841 0.732666 46.3208 0.732666C47.0575 0.732666 47.6791 0.817081 48.1856 0.98591C48.6921 1.13939 49.1065 1.34659 49.4288 1.60751C49.7511 1.86843 50.0043 2.16004 50.1885 2.48235C50.3727 2.78931 50.5031 3.09627 50.5799 3.40323C50.6566 3.69485 50.7027 3.96344 50.718 4.20901C50.7334 4.45458 50.741 4.63876 50.741 4.76154V37.1767ZM44.8474 37.1767C44.8474 37.3609 44.855 37.5834 44.8704 37.8444C44.8857 38.0899 44.9394 38.3278 45.0315 38.5581C45.1236 38.7883 45.2694 38.9878 45.469 39.1566C45.6685 39.3101 45.9524 39.3868 46.3208 39.3868C46.6891 39.3868 46.9731 39.3101 47.1726 39.1566C47.3721 38.9878 47.5179 38.7883 47.61 38.5581C47.7021 38.3278 47.7558 38.0899 47.7712 37.8444C47.7865 37.5834 47.7942 37.3609 47.7942 37.1767V4.76154C47.7942 4.57736 47.7865 4.37784 47.7712 4.16297C47.7558 3.94809 47.7021 3.75624 47.61 3.58741C47.5179 3.40323 47.3721 3.24975 47.1726 3.12697C46.9731 3.00418 46.6891 2.94279 46.3208 2.94279C45.9524 2.94279 45.6685 3.00418 45.469 3.12697C45.2694 3.24975 45.1236 3.40323 45.0315 3.58741C44.9394 3.75624 44.8857 3.94809 44.8704 4.16297C44.855 4.37784 44.8474 4.57736 44.8474 4.76154V37.1767Z" fill="#999999"/>
<path d="M62.5284 17.2856C62.5284 18.3906 62.3442 19.1581 61.9758 19.5878C61.6075 20.0175 61.0549 20.2324 60.3182 20.2324C60.6866 20.2324 61.0089 20.3168 61.2852 20.4857C61.5614 20.6545 61.7917 20.877 61.9758 21.1533C62.16 21.4296 62.2981 21.7442 62.3902 22.0972C62.4823 22.4502 62.5284 22.8109 62.5284 23.1793V40.8603H59.5815V22.4425C59.5815 22.0742 59.4971 21.7903 59.3283 21.5907C59.1595 21.3912 58.9369 21.2454 58.6606 21.1533C58.3844 21.0612 58.0697 21.0075 57.7167 20.9922C57.3637 20.9768 57.003 20.9691 56.6347 20.9691V40.8603H53.6879V1.078H56.6347C57.3714 1.078 58.0928 1.10102 58.7988 1.14706C59.5048 1.17776 60.1341 1.30822 60.6866 1.53844C61.2391 1.76866 61.6842 2.13702 62.0219 2.6435C62.3595 3.13464 62.5284 3.84066 62.5284 4.76154V17.2856ZM59.5815 4.76154C59.5815 4.39319 59.5278 4.10925 59.4204 3.90972C59.3283 3.7102 59.1671 3.56439 58.9369 3.4723C58.7067 3.38021 58.3997 3.32649 58.016 3.31115C57.6477 3.2958 57.1872 3.28812 56.6347 3.28812V19.4957C57.003 19.4957 57.3637 19.488 57.7167 19.4727C58.0697 19.4573 58.3844 19.4036 58.6606 19.3115C58.9369 19.2194 59.1595 19.0736 59.3283 18.8741C59.4971 18.6746 59.5815 18.3907 59.5815 18.0223V4.76154Z" fill="#999999"/>
<path d="M68.7904 1.078V40.8603H65.8436V1.078H68.7904Z" fill="#999999"/>
<path d="M80.2094 40.8603H77.2625L76.8942 31.2831H74.7071L74.3157 40.8603H71.3689L73.579 1.078H77.9993L80.2094 40.8603ZM75.7891 2.55142L75.0524 20.2324L74.7071 29.0729H76.8942L75.7891 2.55142Z" fill="#999999"/>
<path d="M85.3663 1.078V38.6501H88.3132V40.8603H82.4195V1.078H85.3663Z" fill="#999999"/>
<path d="M94.9436 1.078L93.4701 34.9666H91.9967L90.5233 1.078H94.9436ZM94.2068 37.1767V40.8603H91.26V37.1767H94.2068Z" fill="#999999"/>
</svg>
