<svg width="110" height="42" viewBox="0 0 110 42" fill="none" xmlns="http://www.w3.org/2000/svg">
<path d="M23.4226 6.68016C24.7542 6.68016 25.9462 6.95938 26.9987 7.51781C28.0726 8.05477 28.9102 8.90315 29.5116 10.063C30.1345 11.2228 30.4459 12.7263 30.4459 14.5734V24.6252H23.1648V15.8299C23.1648 14.7345 22.9822 13.9613 22.6171 13.5102C22.252 13.0377 21.7795 12.8014 21.1996 12.8014C20.77 12.8014 20.3834 12.9088 20.0397 13.1236C19.6961 13.3384 19.4169 13.682 19.2021 14.1546C19.0088 14.6056 18.9121 15.2285 18.9121 16.0232V24.6252H11.631V15.8299C11.631 14.7345 11.4592 13.9613 11.1156 13.5102C10.7719 13.0377 10.2887 12.8014 9.66578 12.8014C9.23622 12.8014 8.84961 12.9088 8.50596 13.1236C8.16231 13.3384 7.8831 13.682 7.66831 14.1546C7.47501 14.6056 7.37836 15.2285 7.37836 16.0232V24.6252H0.0972595V7.00233H7.02397V12.0604L5.60641 10.6429C6.27223 9.31124 7.16358 8.32324 8.28044 7.6789C9.39731 7.01307 10.643 6.68016 12.0176 6.68016C13.5641 6.68016 14.9279 7.08825 16.1092 7.90442C17.312 8.69911 18.1174 9.96632 18.5255 11.7061L16.3025 11.3517C16.9469 9.89115 17.8812 8.75281 19.1054 7.93664C20.3512 7.09899 21.7902 6.68016 23.4226 6.68016Z" fill="#999999"/>
<path d="M38.8559 24.9473C37.4598 24.9473 36.1926 24.6681 35.0542 24.1097C33.9374 23.5298 33.0568 22.6384 32.4124 21.4357C31.7681 20.2114 31.4459 18.6435 31.4459 16.7319V7.00233H38.727V15.4755C38.727 16.7212 38.931 17.5911 39.3391 18.0851C39.7472 18.5791 40.3056 18.8261 41.0144 18.8261C41.444 18.8261 41.8413 18.7187 42.2065 18.5039C42.5931 18.2676 42.9045 17.8918 43.1408 17.3763C43.377 16.8393 43.4952 16.1413 43.4952 15.2822V7.00233H50.7763V24.6252H43.8495V19.5348L45.2349 20.9202C44.612 22.2948 43.7207 23.315 42.5609 23.9808C41.4225 24.6252 40.1875 24.9473 38.8559 24.9473Z" fill="#999999"/>
<path d="M64.1542 6.68016C65.5073 6.68016 66.7316 6.95938 67.827 7.51781C68.9224 8.05477 69.7815 8.90315 70.4044 10.063C71.0487 11.2228 71.3709 12.7263 71.3709 14.5734V24.6252H64.0898V15.8299C64.0898 14.7345 63.8965 13.9613 63.5099 13.5102C63.1233 13.0377 62.5971 12.8014 61.9312 12.8014C61.4372 12.8014 60.9754 12.9196 60.5459 13.1558C60.1378 13.3706 59.8049 13.7357 59.5471 14.2512C59.3109 14.7667 59.1928 15.4647 59.1928 16.3453V24.6252H51.9117V7.00233H58.8384V12.1571L57.453 10.6751C58.1403 9.34346 59.0639 8.34472 60.2237 7.6789C61.405 7.01307 62.7152 6.68016 64.1542 6.68016Z" fill="#999999"/>
<path d="M82.2253 24.9473C80.2064 24.9473 78.413 24.5607 76.845 23.7875C75.2771 23.0143 74.0421 21.9404 73.1401 20.5658C72.2595 19.1697 71.8192 17.5803 71.8192 15.7976C71.8192 14.015 72.2595 12.4363 73.1401 11.0617C74.0421 9.68711 75.2771 8.6132 76.845 7.83998C78.413 7.06677 80.2064 6.68016 82.2253 6.68016C84.3731 6.68016 86.2095 7.14194 87.7345 8.06551C89.2594 8.98907 90.3119 10.267 90.8918 11.8994L85.2537 14.67C84.8886 13.8539 84.4376 13.2632 83.9006 12.8981C83.3851 12.533 82.816 12.3504 82.1931 12.3504C81.6562 12.3504 81.1514 12.4793 80.6789 12.737C80.2279 12.9947 79.8627 13.3814 79.5835 13.8968C79.3258 14.3908 79.1969 15.0244 79.1969 15.7976C79.1969 16.5709 79.3258 17.2152 79.5835 17.7307C79.8627 18.2462 80.2279 18.6328 80.6789 18.8905C81.1514 19.1482 81.6562 19.2771 82.1931 19.2771C82.816 19.2771 83.3851 19.0945 83.9006 18.7294C84.4376 18.3643 84.8886 17.7736 85.2537 16.9575L90.8918 19.7282C90.3119 21.3605 89.2594 22.6384 87.7345 23.562C86.2095 24.4856 84.3731 24.9473 82.2253 24.9473Z" fill="#999999"/>
<path d="M102.723 6.68016C104.076 6.68016 105.3 6.95938 106.396 7.51781C107.491 8.05477 108.35 8.90315 108.973 10.063C109.618 11.2228 109.94 12.7263 109.94 14.5734V24.6252H102.659V15.8299C102.659 14.7345 102.465 13.9613 102.079 13.5102C101.692 13.0377 101.166 12.8014 100.5 12.8014C100.006 12.8014 99.5443 12.9196 99.1147 13.1558C98.7066 13.3706 98.3737 13.7357 98.116 14.2512C97.8797 14.7667 97.7616 15.4647 97.7616 16.3453V24.6252H90.4805V0.719971H97.7616V12.1571L96.0219 10.6751C96.7092 9.34346 97.6327 8.34472 98.7925 7.6789C99.9738 7.01307 101.284 6.68016 102.723 6.68016Z" fill="#999999"/>
<path d="M30.7493 26.4903C30.7493 26.4903 30.0253 21.7222 25.8189 22.7654C21.9006 23.7372 17.4912 39.8578 17.4912 39.8578H61.0534C62.0606 32.4181 54.4394 27.0911 54.4394 27.0911C54.4394 27.0911 48.8482 22.7654 46.1419 22.7654C43.6165 22.7654 42.414 26.4903 42.414 26.4903C42.414 26.4903 40.6102 20.0018 36.1607 20.0018C31.7113 20.0018 30.7493 26.4903 30.7493 26.4903Z" fill="white"/>
<path d="M46.3445 24.4418C46.3445 24.4418 45.4785 18.318 40.4467 19.6579C35.7596 20.9059 30.4851 41.6098 30.4851 41.6098H82.5946C83.7993 32.0549 74.6829 25.2134 74.6829 25.2134C74.6829 25.2134 67.9946 19.6579 64.7572 19.6579C61.7364 19.6579 60.2979 24.4418 60.2979 24.4418C60.2979 24.4418 58.1402 16.1085 52.8177 16.1085C47.4953 16.1085 46.3445 24.4418 46.3445 24.4418Z" fill="white"/>
<path d="M72.0186 26.4903C72.0186 26.4903 71.2947 21.7222 67.0882 22.7654C63.1699 23.7372 58.7606 39.8578 58.7606 39.8578H102.323C103.33 32.4181 95.7088 27.0911 95.7088 27.0911C95.7088 27.0911 90.1176 22.7654 87.4112 22.7654C84.8859 22.7654 83.6833 26.4903 83.6833 26.4903C83.6833 26.4903 81.8795 20.0018 77.4301 20.0018C72.9807 20.0018 72.0186 26.4903 72.0186 26.4903Z" fill="white"/>
</svg>
