<svg width="79" height="46" viewBox="0 0 79 46" fill="none" xmlns="http://www.w3.org/2000/svg">
<path d="M21.325 40.7087V40.736H21.3523H31.767H31.7943V40.7087V38.2513V38.224H31.767H24.071V24.326V24.2988H24.0437H21.3523H21.325V24.326V40.7087ZM41.6203 30.6435C40.8186 29.7562 39.6139 29.2136 38.2072 29.2136C35.1476 29.2136 32.7737 31.8024 32.7737 35.1152C32.7737 38.4048 35.1478 40.97 38.2072 40.97C39.6136 40.97 40.8183 40.4501 41.6203 39.5635V40.7087V40.736H41.6476H44.222H44.2493V40.7087V29.4749V29.4476H44.222H41.6476H41.6203V29.4749V30.6435ZM47.0518 40.7087V40.736H47.0791H49.6535H49.6808V40.7087V34.0152C49.6808 33.2732 49.9472 32.6899 50.3828 32.2918C50.8187 31.8934 51.4261 31.6787 52.1109 31.6787C52.7957 31.6787 53.3972 31.8934 53.8272 32.2917C54.2569 32.6897 54.5177 33.2731 54.5177 34.0152V40.7087V40.736H54.5449H57.1193H57.1466V40.7087V34.0152C57.1466 33.2732 57.4131 32.6899 57.8486 32.2918C58.2845 31.8934 58.8919 31.6787 59.5767 31.6787C60.2615 31.6787 60.863 31.8934 61.293 32.2917C61.7227 32.6897 61.9835 33.2731 61.9835 34.0152V40.7087V40.736H62.0107H64.5852H64.6124V40.7087V33.4535C64.6124 32.1474 64.1239 31.0869 63.3311 30.353C62.5385 29.6194 61.4434 29.2136 60.232 29.2136C58.6702 29.2136 57.3383 29.9066 56.4893 31.0642C55.7535 29.8829 54.4209 29.2136 52.8833 29.2136C51.5925 29.2136 50.458 29.6879 49.6808 30.5497V29.4749V29.4476H49.6535H47.0791H47.0518V29.4749V40.7087ZM67.2102 45.3895V45.4167H67.2375H69.8119H69.8391V45.3895V39.5635C70.6411 40.4501 71.8459 40.97 73.2522 40.97C76.3117 40.97 78.6858 38.4048 78.6858 35.1152C78.6858 31.8024 76.3119 29.2136 73.2522 29.2136C71.8456 29.2136 70.6409 29.7562 69.8391 30.6435V29.4749V29.4476H69.8119H67.2375H67.2102V29.4749V45.3895ZM38.6285 38.4815C37.6995 38.4815 36.9111 38.1333 36.3549 37.5364C35.7985 36.9395 35.4729 36.0922 35.4729 35.0918C35.4729 34.0914 35.7985 33.2441 36.3549 32.6471C36.9111 32.0503 37.6995 31.7021 38.6285 31.7021C39.5693 31.7021 40.3576 32.0504 40.9109 32.6471C41.4643 33.244 41.7842 34.0913 41.7842 35.0918C41.7842 36.0923 41.4643 36.9396 40.9109 37.5365C40.3576 38.1332 39.5693 38.4815 38.6285 38.4815ZM72.831 38.4815C71.8902 38.4815 71.1019 38.1332 70.5486 37.5365C69.9952 36.9396 69.6753 36.0923 69.6753 35.0918C69.6753 34.0913 69.9952 33.244 70.5486 32.6471C71.1019 32.0504 71.8902 31.7021 72.831 31.7021C73.76 31.7021 74.5483 32.0503 75.1046 32.6471C75.661 33.2441 75.9866 34.0914 75.9866 35.0918C75.9866 36.0922 75.661 36.9395 75.1046 37.5364C74.5483 38.1333 73.76 38.4815 72.831 38.4815Z" fill="#999999" stroke="#999999" stroke-width="0.0545527"/>
<path d="M33.2232 27.8618H12.2477C12.2477 27.8618 15.3026 21.9974 16.1755 15.3965H29.7318C30.6867 21.9974 33.2232 27.8618 33.2232 27.8618Z" fill="white" stroke="#999999" stroke-width="2.34577"/>
<line x1="1.12829" y1="16.8621" x2="9.77815" y2="18.2709" stroke="#999999" stroke-width="2.34577"/>
<line x1="22.5854" y1="9.8866" x2="22.5854" y2="0.93995" stroke="#999999" stroke-width="2.34577"/>
<line x1="35.9531" y1="18.2211" x2="45.3361" y2="16.6937" stroke="#999999" stroke-width="2.34577"/>
</svg>
