<svg width="52" height="27" viewBox="0 0 52 27" fill="none" xmlns="http://www.w3.org/2000/svg">
<path d="M0.868591 20.7579H5.48885V14.3331H8.47155C12.9748 14.3331 16.016 11.5295 16.016 7.20727C16.016 2.79746 12.9748 0.0230713 8.47155 0.0230713H0.868591V20.7579ZM5.48885 10.0985V4.25766H8.03292C9.90441 4.25766 11.3373 4.98776 11.3373 7.20727C11.3373 9.42677 9.90441 10.0985 8.03292 10.0985H5.48885Z" fill="#999999"/>
<path d="M24.1239 21.05C26.8141 21.05 28.3932 19.5898 28.6271 19.0349H28.7149V20.7579H33.2474V5.57184H28.7149V7.29488H28.6271C28.3932 6.74 26.8141 5.2798 24.1239 5.2798C20.6733 5.2798 16.8718 7.87896 16.8718 13.1649C16.8718 18.4508 20.6733 21.05 24.1239 21.05Z" fill="#999999"/>
<path d="M38.4859 26.3067H42.9307L45.27 20.7579L51.6448 5.57184H47.0246L43.1646 15.4428L39.3046 5.57184H34.6844L41.0007 20.5827L38.4859 26.3067Z" fill="#999999"/>
<path fill-rule="evenodd" clip-rule="evenodd" d="M27.1237 17.2171L20.0777 13.1872L27.1237 9.15735V11.3965H33.2419V14.9779H27.1237V17.2171Z" fill="white"/>
</svg>
