<svg width="92" height="37" viewBox="0 0 92 37" fill="none" xmlns="http://www.w3.org/2000/svg">
<path d="M43.247 16.4164H43.995V35.7533H43.247V16.4164ZM43.621 11.0678C43.3467 11.0678 43.1098 10.9681 42.9104 10.7686C42.7358 10.5691 42.6485 10.3447 42.6485 10.0954C42.6485 9.8211 42.7358 9.59669 42.9104 9.42214C43.1098 9.22266 43.3467 9.12292 43.621 9.12292C43.8704 9.12292 44.0948 9.22266 44.2942 9.42214C44.4937 9.59669 44.5935 9.8211 44.5935 10.0954C44.5935 10.3447 44.4937 10.5691 44.2942 10.7686C44.0948 10.9681 43.8704 11.0678 43.621 11.0678Z" fill="#999999"/>
<path d="M9.92008 36.0899C8.22451 36.0899 6.55388 35.9029 4.90818 35.5289C3.26248 35.1299 1.94094 34.6188 0.943542 33.9954L3.07547 29.1331C3.99806 29.7066 5.09519 30.1679 6.36687 30.517C7.63854 30.8412 8.89775 31.0032 10.1445 31.0032C11.2915 31.0032 12.1019 30.891 12.5756 30.6666C13.0743 30.4173 13.3237 30.0682 13.3237 29.6194C13.3237 29.1705 13.0245 28.8588 12.426 28.6843C11.8525 28.4848 10.9299 28.2978 9.65826 28.1233C8.0375 27.9238 6.65362 27.662 5.50662 27.3378C4.38455 27.0137 3.41209 26.4152 2.58924 25.5425C1.76639 24.6698 1.35497 23.448 1.35497 21.8771C1.35497 20.5805 1.74146 19.4335 2.51444 18.4361C3.28742 17.4138 4.40948 16.6158 5.88064 16.0423C7.37673 15.4439 9.15957 15.1447 11.2292 15.1447C12.7003 15.1447 14.159 15.2943 15.6052 15.5935C17.0514 15.8927 18.2608 16.3166 19.2332 16.8652L17.1013 21.6901C15.306 20.6927 13.3611 20.194 11.2666 20.194C10.1445 20.194 9.32164 20.3311 8.79801 20.6054C8.27438 20.8548 8.01257 21.1914 8.01257 21.6153C8.01257 22.089 8.29932 22.4257 8.87282 22.6251C9.44632 22.7997 10.3938 22.9867 11.7154 23.1862C13.386 23.4355 14.7699 23.7223 15.867 24.0464C16.9642 24.3706 17.9117 24.969 18.7096 25.8417C19.5325 26.6895 19.9439 27.8864 19.9439 29.4323C19.9439 30.704 19.5574 31.851 18.7844 32.8733C18.0114 33.8707 16.8644 34.6562 15.3434 35.2297C13.8473 35.8032 12.0395 36.0899 9.92008 36.0899Z" fill="#999999"/>
<path d="M23.0062 8.00085H30.1126V35.7533H23.0062V8.00085Z" fill="#999999"/>
<path d="M82.9062 15.1447C85.3996 15.1447 87.382 15.8927 88.8531 17.3888C90.3492 18.8849 91.0973 21.1415 91.0973 24.1586V35.7533H83.9908V25.3181C83.9908 23.8968 83.7165 22.8495 83.168 22.1763C82.6443 21.5031 81.8963 21.1664 80.9238 21.1664C79.8516 21.1664 78.9914 21.5405 78.3431 22.2885C77.6948 23.0366 77.3706 24.1711 77.3706 25.6921V35.7533H70.2642V25.3181C70.2642 22.5503 69.2419 21.1664 67.1972 21.1664C66.1001 21.1664 65.2274 21.5405 64.5791 22.2885C63.9308 23.0366 63.6066 24.1711 63.6066 25.6921V35.7533H56.5002V15.4813H63.27V17.6132C64.018 16.7904 64.9032 16.1795 65.9255 15.7805C66.9728 15.3566 68.1073 15.1447 69.3291 15.1447C70.7504 15.1447 72.0221 15.4065 73.1442 15.9301C74.2662 16.4538 75.1764 17.2517 75.8745 18.3239C76.6725 17.3015 77.6823 16.5161 78.9041 15.9675C80.1259 15.419 81.4599 15.1447 82.9062 15.1447Z" fill="#999999"/>
<circle cx="43.6409" cy="9.33294" r="7.16213" fill="#999999" stroke="white" stroke-width="4.13812"/>
</svg>
