<svg width="95" height="47" viewBox="0 0 95 47" fill="none" xmlns="http://www.w3.org/2000/svg">
<path d="M28.3699 36.5685C28.3699 38.2773 27.9737 39.8251 27.1812 41.2119C26.3887 42.5739 25.2496 43.6635 23.7637 44.4808C22.2778 45.2732 20.532 45.6695 18.526 45.6695C16.4706 45.6695 14.7123 45.2732 13.2512 44.4808C11.7901 43.6635 10.6633 42.5739 9.87087 41.2119C9.07841 39.8251 8.68218 38.2773 8.68218 36.5685C8.68218 34.736 9.10318 33.1015 9.94517 31.6652C10.7624 30.2041 11.9139 29.0649 13.3998 28.2477C14.8609 27.4057 16.5696 26.9847 18.526 26.9847C20.4577 26.9847 22.1664 27.4057 23.6523 28.2477C25.1381 29.0649 26.3021 30.2041 27.1441 31.6652C27.9613 33.1015 28.3699 34.736 28.3699 36.5685ZM28.2213 46.301H0.658508V44.4436H15.1085L18.4889 44.8151L21.8692 44.5179H28.2213V46.301ZM26.6983 36.68C26.6983 35.1941 26.364 33.8568 25.6953 32.6681C25.0019 31.4795 24.0361 30.5508 22.7979 29.8821C21.5597 29.1887 20.1357 28.842 18.526 28.842C16.8916 28.842 15.4676 29.1887 14.2542 29.8821C13.016 30.5508 12.0625 31.4795 11.3939 32.6681C10.7005 33.8568 10.3538 35.1941 10.3538 36.68C10.3538 38.1658 10.7005 39.5031 11.3939 40.6918C12.0625 41.8557 13.016 42.7844 14.2542 43.4778C15.4676 44.1465 16.8916 44.4808 18.526 44.4808C20.1357 44.4808 21.5597 44.1465 22.7979 43.4778C24.0361 42.7844 25.0019 41.8557 25.6953 40.6918C26.364 39.5031 26.6983 38.1658 26.6983 36.68Z" fill="#999999"/>
<path d="M38.039 21.4702C36.3448 22.4484 34.633 22.9505 32.9038 22.9767C31.196 22.9904 29.5953 22.5706 28.1017 21.7172C26.6296 20.8514 25.4168 19.5928 24.4634 17.9414C23.4976 16.2685 22.9925 14.6013 22.9483 12.9398C22.9131 11.2443 23.2962 9.67916 24.0977 8.24418C24.8992 6.80921 26.0612 5.65216 27.584 4.77302C29.1067 3.89389 30.6728 3.46148 32.2825 3.47582C33.9135 3.47777 35.4437 3.92403 36.8729 4.8146C38.3112 5.67133 39.5132 6.93612 40.479 8.60896C40.5162 8.6733 40.5488 8.75455 40.5769 8.85272C40.614 8.91706 40.6574 8.99212 40.7069 9.07791L25.8766 17.6402L25.1522 16.3856L39.114 8.32476L38.8234 9.30746C38.0896 7.98683 37.1359 6.97896 35.9625 6.28384C34.7982 5.55489 33.5663 5.17949 32.2669 5.15763C30.9551 5.11433 29.6665 5.45795 28.4012 6.1885C27.1573 6.90667 26.2154 7.85079 25.5756 9.02088C24.9448 10.1571 24.6539 11.4117 24.7031 12.7845C24.7398 14.1359 25.142 15.4764 25.9097 16.8061L26.0769 17.0956C26.8693 18.4682 27.8754 19.5173 29.095 20.2429C30.3237 20.9347 31.6475 21.2713 33.0666 21.2527C34.4732 21.2127 35.8628 20.7964 37.2354 20.004C38.3077 19.3849 39.1936 18.6161 39.8929 17.6976C40.6137 16.7667 41.0667 15.7188 41.2519 14.5538L42.7978 15.0768C42.5886 16.3986 42.0627 17.6173 41.2199 18.733C40.3861 19.8149 39.3258 20.7273 38.039 21.4702Z" fill="#999999"/>
<path d="M66.2824 4.60752C67.655 5.39998 68.6905 6.35527 69.3889 7.4734C70.1212 8.58247 70.4566 9.83413 70.3951 11.2284C70.3674 12.6136 69.9016 14.089 68.9977 15.6546L63.3329 25.4664L61.7244 24.5378L67.3149 14.8546C68.4046 12.9673 68.7516 11.2518 68.3561 9.70806C67.9821 8.17669 66.9371 6.91572 65.2214 5.92515C63.9132 5.16983 62.6217 4.78166 61.3471 4.76063C60.0724 4.73959 58.8991 5.06304 57.8272 5.73096C56.7767 6.41127 55.8615 7.42699 55.0814 8.77813L49.918 17.7214L48.3095 16.7927L58.0048 0L59.5489 0.891519L56.8558 5.55616L56.9278 4.91143C58.2102 3.87891 59.6579 3.32785 61.2708 3.25824C62.8962 3.16718 64.5667 3.61694 66.2824 4.60752Z" fill="#999999"/>
<path d="M66.4201 36.5601C66.4201 34.7523 66.8287 33.1179 67.6459 31.6568C68.4879 30.2204 69.6518 29.0813 71.1377 28.2393C72.6236 27.3973 74.3323 26.9763 76.2639 26.9763C78.2203 26.9763 79.9291 27.3973 81.3902 28.2393C82.876 29.0813 84.0276 30.2204 84.8448 31.6568C85.6868 33.1179 86.1078 34.7523 86.1078 36.5601C86.1078 38.2689 85.7116 39.8043 84.9191 41.1663C84.1266 42.5531 82.9998 43.6427 81.5387 44.4352C80.0777 45.2524 78.3194 45.6611 76.2639 45.6611C74.258 45.6611 72.5121 45.2648 71.0263 44.4724C69.5404 43.6799 68.4012 42.5903 67.6088 41.2035C66.8163 39.8414 66.4201 38.2936 66.4201 36.5601ZM68.0917 36.6716C68.0917 38.1574 68.426 39.4823 69.0946 40.6463C69.788 41.8349 70.7539 42.7636 71.9921 43.4323C73.2303 44.1257 74.6543 44.4724 76.2639 44.4724C77.8984 44.4724 79.3223 44.1257 80.5358 43.4323C81.774 42.7636 82.7274 41.8349 83.3961 40.6463C84.0895 39.4823 84.4362 38.1574 84.4362 36.6716C84.4362 35.1857 84.0895 33.8484 83.3961 32.6597C82.7274 31.4958 81.774 30.5671 80.5358 29.8737C79.3223 29.2051 77.8984 28.8708 76.2639 28.8708C74.6543 28.8708 73.2303 29.2051 71.9921 29.8737C70.7539 30.5671 69.788 31.4958 69.0946 32.6597C68.426 33.8484 68.0917 35.1857 68.0917 36.6716ZM66.5687 44.5095H72.9207L76.3011 44.8438L79.6814 44.4724H94.1315V46.3297H66.5687V44.5095Z" fill="#999999"/>
</svg>
