<svg width="87" height="37" viewBox="0 0 87 37" fill="none" xmlns="http://www.w3.org/2000/svg">
<path fill-rule="evenodd" clip-rule="evenodd" d="M86.5002 18.9268C86.5002 12.7757 83.5208 7.92212 77.8262 7.92212C72.1076 7.92212 68.6476 12.7757 68.6476 18.8788C68.6476 26.1111 72.7323 29.7634 78.5951 29.7634C81.4544 29.7634 83.6169 29.1146 85.2508 28.2016V23.396C83.6169 24.213 81.7427 24.7175 79.364 24.7175C77.0333 24.7175 74.9669 23.9006 74.7026 21.0653H86.4522C86.4522 20.753 86.5002 19.5035 86.5002 18.9268ZM74.6305 16.6442C74.6305 13.9291 76.2884 12.7998 77.8022 12.7998C79.2679 12.7998 80.8297 13.9291 80.8297 16.6442H74.6305Z" fill="#635BFF"/>
<path fill-rule="evenodd" clip-rule="evenodd" d="M59.373 7.92212C57.0183 7.92212 55.5045 9.0274 54.6635 9.79629L54.3512 8.30656H49.0651V36.323L55.072 35.0495L55.096 28.2496C55.961 28.8743 57.2345 29.7634 59.3489 29.7634C63.6499 29.7634 67.5665 26.3034 67.5665 18.6866C67.5424 11.7185 63.5778 7.92212 59.373 7.92212ZM57.9313 24.4773C56.5137 24.4773 55.6727 23.9727 55.096 23.348L55.072 14.4336C55.6967 13.7368 56.5617 13.2563 57.9313 13.2563C60.1178 13.2563 61.6316 15.7071 61.6316 18.8548C61.6316 22.0745 60.1419 24.4773 57.9313 24.4773Z" fill="#635BFF"/>
<path fill-rule="evenodd" clip-rule="evenodd" d="M40.7995 6.50473L46.8305 5.20723V0.32959L40.7995 1.60306V6.50473Z" fill="#635BFF"/>
<path d="M46.8305 8.33105H40.7995V29.3554H46.8305V8.33105Z" fill="#635BFF"/>
<path fill-rule="evenodd" clip-rule="evenodd" d="M34.3358 10.1087L33.9514 8.33064H28.7614V29.3549H34.7683V15.1065C36.1859 13.2563 38.5887 13.5927 39.3336 13.857V8.33064C38.5647 8.04231 35.7534 7.51369 34.3358 10.1087Z" fill="#635BFF"/>
<path fill-rule="evenodd" clip-rule="evenodd" d="M22.3215 3.1167L16.4587 4.36614L16.4347 23.6124C16.4347 27.1685 19.1018 29.7875 22.6579 29.7875C24.6282 29.7875 26.0698 29.4271 26.8627 28.9946V24.117C26.0939 24.4293 22.2975 25.5346 22.2975 21.9785V13.4486H26.8627V8.33073H22.2975L22.3215 3.1167Z" fill="#635BFF"/>
<path fill-rule="evenodd" clip-rule="evenodd" d="M6.07903 14.4336C6.07903 13.4966 6.84792 13.1361 8.12139 13.1361C9.9475 13.1361 12.2542 13.6888 14.0803 14.6739V9.0274C12.086 8.23448 10.1157 7.92212 8.12139 7.92212C3.24375 7.92212 0 10.4691 0 14.722C0 21.3536 9.13056 20.2964 9.13056 23.1557C9.13056 24.261 8.16945 24.6214 6.82389 24.6214C4.82958 24.6214 2.28264 23.8045 0.264305 22.6992V28.4178C2.49889 29.3789 4.7575 29.7874 6.82389 29.7874C11.8217 29.7874 15.2576 27.3125 15.2576 23.0116C15.2336 15.8513 6.07903 17.1248 6.07903 14.4336Z" fill="#635BFF"/>
</svg>
