<svg width="39" height="40" viewBox="0 0 39 40" fill="none" xmlns="http://www.w3.org/2000/svg">
<path d="M35.75 20.6297V23.9772C35.75 24.8872 35.0025 25.6347 34.0763 25.6347H30.94C29.185 25.6347 27.5763 24.3509 27.43 22.5959C27.3325 21.5722 27.7225 20.6134 28.405 19.9472C29.0063 19.3297 29.835 18.9722 30.745 18.9722H34.0763C35.0025 18.9722 35.75 19.7197 35.75 20.6297Z" fill="white"/>
<path d="M24.9925 22.807C24.8463 21.1007 25.4638 19.427 26.6987 18.2082C27.7388 17.152 29.185 16.5345 30.745 16.5345H31.6712C32.1262 16.5345 32.5 16.1607 32.435 15.7057C31.9962 12.5532 29.2663 10.1157 26 10.1157H9.75C6.15875 10.1157 3.25 13.0245 3.25 16.6157V27.9907C3.25 31.582 6.15875 34.4907 9.75 34.4907H26C29.2825 34.4907 31.9962 32.0532 32.435 28.9007C32.5 28.4457 32.1262 28.072 31.6712 28.072H30.94C27.8525 28.072 25.2525 25.7645 24.9925 22.807ZM21.125 19.4595H11.375C10.7087 19.4595 10.1562 18.9232 10.1562 18.2407C10.1562 17.5582 10.7087 17.022 11.375 17.022H21.125C21.7913 17.022 22.3438 17.5745 22.3438 18.2407C22.3438 18.907 21.7913 19.4595 21.125 19.4595Z" fill="white"/>
<path d="M23.0913 6.58967C23.5138 7.02842 23.14 7.67842 22.5225 7.67842H9.79875C8.0275 7.67842 6.37 8.19842 4.98875 9.09217C4.355 9.49842 3.49375 9.05967 3.8025 8.36092C4.7125 6.23217 6.84125 4.75342 9.295 4.75342H18.4275C20.3125 4.75342 21.9863 5.41967 23.0913 6.58967Z" fill="white"/>
</svg>
